<svg xmlns="http://www.w3.org/2000/svg" width="1440" height="900"><path d="M686,504L629,498L679,553Z" fill="#66607f" stroke="#66607f" stroke-width="1.51"/><path d="M629,498L599,592L679,553Z" fill="#645e7c" stroke="#645e7c" stroke-width="1.51"/><path d="M686,504L645,402L629,498Z" fill="#756f8e" stroke="#756f8e" stroke-width="1.51"/><path d="M629,498L517,580L599,592Z" fill="#6b6584" stroke="#6b6584" stroke-width="1.51"/><path d="M679,553L785,510L686,504Z" fill="#5d5675" stroke="#5d5675" stroke-width="1.51"/><path d="M796,381L671,356L645,402Z" fill="#827d9c" stroke="#827d9c" stroke-width="1.51"/><path d="M801,616L785,510L679,553Z" fill="#4e4665" stroke="#4e4665" stroke-width="1.51"/><path d="M511,457L517,580L629,498Z" fill="#7c7695" stroke="#7c7695" stroke-width="1.51"/><path d="M557,390L511,457L629,498Z" fill="#8a84a4" stroke="#8a84a4" stroke-width="1.51"/><path d="M697,694L748,660L679,553Z" fill="#443b5a" stroke="#443b5a" stroke-width="1.51"/><path d="M697,694L679,553L599,592Z" fill="#504968" stroke="#504968" stroke-width="1.51"/><path d="M645,402L557,390L629,498Z" fill="#8681a0" stroke="#8681a0" stroke-width="1.51"/><path d="M796,381L645,402L686,504Z" fill="#756e8d" stroke="#756e8d" stroke-width="1.51"/><path d="M645,402L671,356L557,390Z" fill="#908baa" stroke="#908baa" stroke-width="1.51"/><path d="M748,660L801,616L679,553Z" fill="#443c5a" stroke="#443c5a" stroke-width="1.51"/><path d="M552,680L697,694L599,592Z" fill="#4f4766" stroke="#4f4766" stroke-width="1.51"/><path d="M517,580L552,680L599,592Z" fill="#615a79" stroke="#615a79" stroke-width="1.51"/><path d="M785,510L796,381L686,504Z" fill="#635d7c" stroke="#635d7c" stroke-width="1.51"/><path d="M856,478L796,381L785,510Z" fill="#5d5574" stroke="#5d5574" stroke-width="1.51"/><path d="M801,616L857,541L785,510Z" fill="#453c5b" stroke="#453c5b" stroke-width="1.51"/><path d="M857,541L856,478L785,510Z" fill="#4c4463" stroke="#4c4463" stroke-width="1.51"/><path d="M552,680L656,773L697,694Z" fill="#4b4360" stroke="#4b4360" stroke-width="1.51"/><path d="M402,662L545,700L552,680Z" fill="#625b79" stroke="#625b79" stroke-width="1.51"/><path d="M391,528L405,591L517,580Z" fill="#827d9c" stroke="#827d9c" stroke-width="1.51"/><path d="M557,390L484,387L511,457Z" fill="#9c98b7" stroke="#9c98b7" stroke-width="1.51"/><path d="M504,351L484,387L557,390Z" fill="#a5a2c1" stroke="#a5a2c1" stroke-width="1.51"/><path d="M559,304L504,351L557,390Z" fill="#a8a5c4" stroke="#a8a5c4" stroke-width="1.51"/><path d="M796,381L744,309L671,356Z" fill="#847f9e" stroke="#847f9e" stroke-width="1.51"/><path d="M671,356L559,304L557,390Z" fill="#9d99b8" stroke="#9d99b8" stroke-width="1.51"/><path d="M620,215L559,304L671,356Z" fill="#a9a6c5" stroke="#a9a6c5" stroke-width="1.51"/><path d="M697,694L758,742L748,660Z" fill="#3b3350" stroke="#3b3350" stroke-width="1.51"/><path d="M748,660L837,690L801,616Z" fill="#322a47" stroke="#322a47" stroke-width="1.51"/><path d="M801,616L913,588L857,541Z" fill="#382f4d" stroke="#382f4d" stroke-width="1.51"/><path d="M656,773L758,742L697,694Z" fill="#3f3853" stroke="#3f3853" stroke-width="1.51"/><path d="M758,742L837,690L748,660Z" fill="#332c48" stroke="#332c48" stroke-width="1.51"/><path d="M545,700L656,773L552,680Z" fill="#534c68" stroke="#534c68" stroke-width="1.51"/><path d="M796,381L830,346L744,309Z" fill="#7c7695" stroke="#7c7695" stroke-width="1.51"/><path d="M880,377L830,346L796,381Z" fill="#6e6887" stroke="#6e6887" stroke-width="1.51"/><path d="M484,387L419,426L511,457Z" fill="#a19ebc" stroke="#a19ebc" stroke-width="1.51"/><path d="M517,580L402,662L552,680Z" fill="#67607f" stroke="#67607f" stroke-width="1.51"/><path d="M408,292L419,426L484,387Z" fill="#b6b4d3" stroke="#b6b4d3" stroke-width="1.51"/><path d="M391,528L517,580L511,457Z" fill="#8782a1" stroke="#8782a1" stroke-width="1.51"/><path d="M545,700L627,785L656,773Z" fill="#4e4863" stroke="#4e4863" stroke-width="1.51"/><path d="M656,773L710,830L758,742Z" fill="#3e3752" stroke="#3e3752" stroke-width="1.51"/><path d="M510,780L627,785L545,700Z" fill="#56506c" stroke="#56506c" stroke-width="1.51"/><path d="M419,426L391,528L511,457Z" fill="#9b97b6" stroke="#9b97b6" stroke-width="1.51"/><path d="M837,690L913,588L801,616Z" fill="#2e2543" stroke="#2e2543" stroke-width="1.51"/><path d="M857,541L966,457L856,478Z" fill="#473f5d" stroke="#473f5d" stroke-width="1.51"/><path d="M856,478L880,377L796,381Z" fill="#625b7a" stroke="#625b7a" stroke-width="1.51"/><path d="M913,428L880,377L856,478Z" fill="#58506f" stroke="#58506f" stroke-width="1.51"/><path d="M966,457L913,428L856,478Z" fill="#4d4463" stroke="#4d4463" stroke-width="1.51"/><path d="M347,683L402,662L405,591Z" fill="#736582" stroke="#736582" stroke-width="1.51"/><path d="M405,591L402,662L517,580Z" fill="#76708f" stroke="#76708f" stroke-width="1.51"/><path d="M456,763L510,780L545,700Z" fill="#605a76" stroke="#605a76" stroke-width="1.51"/><path d="M627,785L710,830L656,773Z" fill="#453f58" stroke="#453f58" stroke-width="1.51"/><path d="M537,819L598,826L627,785Z" fill="#514c65" stroke="#514c65" stroke-width="1.51"/><path d="M913,588L966,457L857,541Z" fill="#3b3351" stroke="#3b3351" stroke-width="1.51"/><path d="M837,690L936,649L913,588Z" fill="#251c39" stroke="#251c39" stroke-width="1.51"/><path d="M927,781L936,649L837,690Z" fill="#211a35" stroke="#211a35" stroke-width="1.51"/><path d="M851,771L837,690L758,742Z" fill="#2e2641" stroke="#2e2641" stroke-width="1.51"/><path d="M598,826L710,830L627,785Z" fill="#48425b" stroke="#48425b" stroke-width="1.51"/><path d="M510,780L537,819L627,785Z" fill="#56516b" stroke="#56516b" stroke-width="1.51"/><path d="M402,662L456,763L545,700Z" fill="#67617e" stroke="#67617e" stroke-width="1.51"/><path d="M744,309L620,215L671,356Z" fill="#9d9ab8" stroke="#9d9ab8" stroke-width="1.51"/><path d="M448,227L408,292L504,351Z" fill="#c8c7e5" stroke="#c8c7e5" stroke-width="1.51"/><path d="M504,351L408,292L484,387Z" fill="#b7b5d4" stroke="#b7b5d4" stroke-width="1.51"/><path d="M638,199L620,215L744,309Z" fill="#aca7c6" stroke="#aca7c6" stroke-width="1.51"/><path d="M798,217L744,309L830,346Z" fill="#8a84a4" stroke="#8a84a4" stroke-width="1.51"/><path d="M773,840L851,771L758,742Z" fill="#312943" stroke="#312943" stroke-width="1.51"/><path d="M880,377L909,337L830,346Z" fill="#6b6584" stroke="#6b6584" stroke-width="1.51"/><path d="M913,428L909,337L880,377Z" fill="#605978" stroke="#605978" stroke-width="1.51"/><path d="M1004,408L909,337L913,428Z" fill="#564f6e" stroke="#564f6e" stroke-width="1.51"/><path d="M455,823L537,819L510,780Z" fill="#605b74" stroke="#605b74" stroke-width="1.51"/><path d="M1003,572L966,457L913,588Z" fill="#312847" stroke="#312847" stroke-width="1.51"/><path d="M753,162L638,199L744,309Z" fill="#a69bb9" stroke="#a69bb9" stroke-width="1.51"/><path d="M419,426L321,499L391,528Z" fill="#9d8fab" stroke="#9d8fab" stroke-width="1.51"/><path d="M391,528L289,622L405,591Z" fill="#85738f" stroke="#85738f" stroke-width="1.51"/><path d="M333,368L321,499L419,426Z" fill="#ac9bb7" stroke="#ac9bb7" stroke-width="1.51"/><path d="M710,830L773,840L758,742Z" fill="#38314a" stroke="#38314a" stroke-width="1.51"/><path d="M776,945L773,840L710,830Z" fill="#363047" stroke="#363047" stroke-width="1.51"/><path d="M871,254L798,217L830,346Z" fill="#8782a0" stroke="#8782a0" stroke-width="1.51"/><path d="M448,227L504,351L559,304Z" fill="#bdbcda" stroke="#bdbcda" stroke-width="1.51"/><path d="M542,201L559,304L620,215Z" fill="#bebad8" stroke="#bebad8" stroke-width="1.51"/><path d="M533,176L542,201L576,134Z" fill="#cab4ce" stroke="#cab4ce" stroke-width="1.51"/><path d="M909,337L871,254L830,346Z" fill="#76708f" stroke="#76708f" stroke-width="1.51"/><path d="M976,259L871,254L909,337Z" fill="#756e8e" stroke="#756e8e" stroke-width="1.51"/><path d="M402,662L360,717L456,763Z" fill="#6f6480" stroke="#6f6480" stroke-width="1.51"/><path d="M289,622L347,683L405,591Z" fill="#796480" stroke="#796480" stroke-width="1.51"/><path d="M997,627L1003,572L913,588Z" fill="#231a38" stroke="#231a38" stroke-width="1.51"/><path d="M997,627L913,588L936,649Z" fill="#211835" stroke="#211835" stroke-width="1.51"/><path d="M347,683L360,717L402,662Z" fill="#72627d" stroke="#72627d" stroke-width="1.51"/><path d="M456,763L455,823L510,780Z" fill="#65607a" stroke="#65607a" stroke-width="1.51"/><path d="M1018,789L997,627L936,649Z" fill="#160c28" stroke="#160c28" stroke-width="1.51"/><path d="M408,292L333,368L419,426Z" fill="#bdb2cf" stroke="#bdb2cf" stroke-width="1.51"/><path d="M360,717L455,823L456,763Z" fill="#6d6681" stroke="#6d6681" stroke-width="1.51"/><path d="M579,963L644,933L598,826Z" fill="#4d485f" stroke="#4d485f" stroke-width="1.51"/><path d="M598,826L644,933L710,830Z" fill="#464158" stroke="#464158" stroke-width="1.51"/><path d="M408,292L303,281L333,368Z" fill="#cdbcd7" stroke="#cdbcd7" stroke-width="1.51"/><path d="M542,201L448,227L559,304Z" fill="#c8c6e4" stroke="#c8c6e4" stroke-width="1.51"/><path d="M966,457L1004,408L913,428Z" fill="#4a4260" stroke="#4a4260" stroke-width="1.51"/><path d="M1055,466L1004,408L966,457Z" fill="#3f3755" stroke="#3f3755" stroke-width="1.51"/><path d="M542,201L533,176L448,227Z" fill="#cfc1dd" stroke="#cfc1dd" stroke-width="1.51"/><path d="M576,134L542,201L620,215Z" fill="#c3b0ca" stroke="#c3b0ca" stroke-width="1.51"/><path d="M576,134L620,215L638,199Z" fill="#bdaac4" stroke="#bdaac4" stroke-width="1.51"/><path d="M851,771L927,781L837,690Z" fill="#251e38" stroke="#251e38" stroke-width="1.51"/><path d="M860,848L927,781L851,771Z" fill="#241d35" stroke="#241d35" stroke-width="1.51"/><path d="M798,217L753,162L744,309Z" fill="#9b92b0" stroke="#9b92b0" stroke-width="1.51"/><path d="M837,138L753,162L798,217Z" fill="#9c849e" stroke="#9c849e" stroke-width="1.51"/><path d="M270,550L289,622L391,528Z" fill="#8b728c" stroke="#8b728c" stroke-width="1.51"/><path d="M347,683L264,736L360,717Z" fill="#745c75" stroke="#745c75" stroke-width="1.51"/><path d="M270,550L391,528L321,499Z" fill="#957e99" stroke="#957e99" stroke-width="1.51"/><path d="M773,840L860,848L851,771Z" fill="#2b253c" stroke="#2b253c" stroke-width="1.51"/><path d="M827,903L860,848L773,840Z" fill="#2c253c" stroke="#2c253c" stroke-width="1.51"/><path d="M213,525L270,550L321,499Z" fill="#997891" stroke="#997891" stroke-width="1.51"/><path d="M533,176L455,165L448,227Z" fill="#d6c6e0" stroke="#d6c6e0" stroke-width="1.51"/><path d="M685,87L576,134L638,199Z" fill="#bd9fb6" stroke="#bd9fb6" stroke-width="1.51"/><path d="M1010,299L976,259L909,337Z" fill="#696281" stroke="#696281" stroke-width="1.51"/><path d="M1003,572L1055,466L966,457Z" fill="#332b48" stroke="#332b48" stroke-width="1.51"/><path d="M1074,454L1055,466L1093,590Z" fill="#312945" stroke="#312945" stroke-width="1.51"/><path d="M753,162L705,121L638,199Z" fill="#ae95ae" stroke="#ae95ae" stroke-width="1.51"/><path d="M760,59L705,121L753,162Z" fill="#ab869d" stroke="#ab869d" stroke-width="1.51"/><path d="M503,905L598,826L537,819Z" fill="#58536b" stroke="#58536b" stroke-width="1.51"/><path d="M455,823L503,905L537,819Z" fill="#605b73" stroke="#605b73" stroke-width="1.51"/><path d="M476,986L503,905L380,942Z" fill="#666377" stroke="#666377" stroke-width="1.51"/><path d="M335,218L303,281L408,292Z" fill="#dacbe4" stroke="#dacbe4" stroke-width="1.51"/><path d="M576,134L455,165L533,176Z" fill="#d1b8d0" stroke="#d1b8d0" stroke-width="1.51"/><path d="M860,848L972,832L927,781Z" fill="#1e172e" stroke="#1e172e" stroke-width="1.51"/><path d="M776,945L827,903L773,840Z" fill="#302a40" stroke="#302a40" stroke-width="1.51"/><path d="M871,254L837,138L798,217Z" fill="#91819e" stroke="#91819e" stroke-width="1.51"/><path d="M1010,299L909,337L1004,408Z" fill="#5b5473" stroke="#5b5473" stroke-width="1.51"/><path d="M1069,411L1010,299L1004,408Z" fill="#504866" stroke="#504866" stroke-width="1.51"/><path d="M1055,466L1069,411L1004,408Z" fill="#433b59" stroke="#433b59" stroke-width="1.51"/><path d="M1093,590L1055,466L1003,572Z" fill="#29203d" stroke="#29203d" stroke-width="1.51"/><path d="M890,103L837,138L961,142Z" fill="#8d6a83" stroke="#8d6a83" stroke-width="1.51"/><path d="M333,368L213,382L321,499Z" fill="#b598b1" stroke="#b598b1" stroke-width="1.51"/><path d="M335,218L408,292L448,227Z" fill="#dcd4f0" stroke="#dcd4f0" stroke-width="1.51"/><path d="M1074,454L1069,411L1055,466Z" fill="#3f3754" stroke="#3f3754" stroke-width="1.51"/><path d="M303,281L260,349L333,368Z" fill="#cbb1ca" stroke="#cbb1ca" stroke-width="1.51"/><path d="M644,933L776,945L710,830Z" fill="#3d374d" stroke="#3d374d" stroke-width="1.51"/><path d="M705,121L685,87L638,199Z" fill="#b596ad" stroke="#b596ad" stroke-width="1.51"/><path d="M530,24L390,94L455,165Z" fill="#e3bbcf" stroke="#e3bbcf" stroke-width="1.51"/><path d="M760,59L685,87L705,121Z" fill="#b1879c" stroke="#b1879c" stroke-width="1.51"/><path d="M927,781L1018,789L936,649Z" fill="#19102a" stroke="#19102a" stroke-width="1.51"/><path d="M997,627L1093,590L1003,572Z" fill="#1d1531" stroke="#1d1531" stroke-width="1.51"/><path d="M923,901L972,832L860,848Z" fill="#1d162d" stroke="#1d162d" stroke-width="1.51"/><path d="M923,901L860,848L827,903Z" fill="#251e34" stroke="#251e34" stroke-width="1.51"/><path d="M270,550L178,538L289,622Z" fill="#8e6a82" stroke="#8e6a82" stroke-width="1.51"/><path d="M289,622L264,736L347,683Z" fill="#765a73" stroke="#765a73" stroke-width="1.51"/><path d="M360,717L298,861L455,823Z" fill="#706179" stroke="#706179" stroke-width="1.51"/><path d="M213,382L213,525L321,499Z" fill="#a9869d" stroke="#a9869d" stroke-width="1.51"/><path d="M1143,669L1093,590L997,627Z" fill="#170e29" stroke="#170e29" stroke-width="1.51"/><path d="M1189,429L1125,349L1069,411Z" fill="#49425e" stroke="#49425e" stroke-width="1.51"/><path d="M455,165L335,218L448,227Z" fill="#dfcfe9" stroke="#dfcfe9" stroke-width="1.51"/><path d="M167,345L213,382L260,349Z" fill="#c9a1b5" stroke="#c9a1b5" stroke-width="1.51"/><path d="M203,706L264,736L289,622Z" fill="#79566d" stroke="#79566d" stroke-width="1.51"/><path d="M503,905L579,963L598,826Z" fill="#555067" stroke="#555067" stroke-width="1.51"/><path d="M644,933L694,1039L776,945Z" fill="#3d384b" stroke="#3d384b" stroke-width="1.51"/><path d="M476,986L579,963L503,905Z" fill="#5b576c" stroke="#5b576c" stroke-width="1.51"/><path d="M972,832L1018,789L927,781Z" fill="#160e27" stroke="#160e27" stroke-width="1.51"/><path d="M961,142L837,138L871,254Z" fill="#8a738e" stroke="#8a738e" stroke-width="1.51"/><path d="M1010,299L1012,248L976,259Z" fill="#6b6483" stroke="#6b6483" stroke-width="1.51"/><path d="M1101,219L1012,248L1010,299Z" fill="#6c6684" stroke="#6c6684" stroke-width="1.51"/><path d="M972,832L1012,821L1018,789Z" fill="#130622" stroke="#130622" stroke-width="1.51"/><path d="M890,978L923,901L827,903Z" fill="#231c31" stroke="#231c31" stroke-width="1.51"/><path d="M1059,915L1012,821L972,832Z" fill="#130420" stroke="#130420" stroke-width="1.51"/><path d="M1018,789L1088,748L997,627Z" fill="#140423" stroke="#140423" stroke-width="1.51"/><path d="M260,349L213,382L333,368Z" fill="#c3a4bc" stroke="#c3a4bc" stroke-width="1.51"/><path d="M205,268L260,349L303,281Z" fill="#d7b6cc" stroke="#d7b6cc" stroke-width="1.51"/><path d="M685,87L602,54L576,134Z" fill="#c39aaf" stroke="#c39aaf" stroke-width="1.51"/><path d="M455,165L366,107L335,218Z" fill="#e4c6db" stroke="#e4c6db" stroke-width="1.51"/><path d="M663,15L602,54L685,87Z" fill="#c08ea1" stroke="#c08ea1" stroke-width="1.51"/><path d="M213,525L178,538L270,550Z" fill="#987086" stroke="#987086" stroke-width="1.51"/><path d="M130,487L178,538L213,525Z" fill="#a07186" stroke="#a07186" stroke-width="1.51"/><path d="M837,138L760,59L753,162Z" fill="#a27f96" stroke="#a27f96" stroke-width="1.51"/><path d="M890,103L760,59L837,138Z" fill="#9b738a" stroke="#9b738a" stroke-width="1.51"/><path d="M579,963L631,1002L644,933Z" fill="#4a465b" stroke="#4a465b" stroke-width="1.51"/><path d="M776,945L797,1008L827,903Z" fill="#2e283d" stroke="#2e283d" stroke-width="1.51"/><path d="M476,986L631,1002L579,963Z" fill="#534f63" stroke="#534f63" stroke-width="1.51"/><path d="M961,142L871,254L976,259Z" fill="#7d718e" stroke="#7d718e" stroke-width="1.51"/><path d="M264,736L298,861L360,717Z" fill="#745b71" stroke="#745b71" stroke-width="1.51"/><path d="M188,689L203,706L289,622Z" fill="#7a536a" stroke="#7a536a" stroke-width="1.51"/><path d="M1091,853L1088,748L1018,789Z" fill="#120421" stroke="#120421" stroke-width="1.51"/><path d="M1012,248L961,142L976,259Z" fill="#756885" stroke="#756885" stroke-width="1.51"/><path d="M253,835L298,861L264,736Z" fill="#75586b" stroke="#75586b" stroke-width="1.51"/><path d="M380,942L503,905L455,823Z" fill="#68647b" stroke="#68647b" stroke-width="1.51"/><path d="M203,706L253,835L264,736Z" fill="#785468" stroke="#785468" stroke-width="1.51"/><path d="M178,538L188,689L289,622Z" fill="#845b72" stroke="#845b72" stroke-width="1.51"/><path d="M298,861L380,942L455,823Z" fill="#6f6276" stroke="#6f6276" stroke-width="1.51"/><path d="M1069,411L1125,349L1010,299Z" fill="#534d6b" stroke="#534d6b" stroke-width="1.51"/><path d="M1012,248L1019,147L961,142Z" fill="#765f7b" stroke="#765f7b" stroke-width="1.51"/><path d="M1189,429L1069,411L1074,454Z" fill="#413a56" stroke="#413a56" stroke-width="1.51"/><path d="M1193,471L1074,454L1093,590Z" fill="#312944" stroke="#312944" stroke-width="1.51"/><path d="M694,1039L797,1008L776,945Z" fill="#342f43" stroke="#342f43" stroke-width="1.51"/><path d="M335,218L205,268L303,281Z" fill="#e1c6dd" stroke="#e1c6dd" stroke-width="1.51"/><path d="M530,24L455,165L576,134Z" fill="#d5b0c5" stroke="#d5b0c5" stroke-width="1.51"/><path d="M390,94L366,107L455,165Z" fill="#e7c2d6" stroke="#e7c2d6" stroke-width="1.51"/><path d="M120,750L253,835L203,706Z" fill="#794f62" stroke="#794f62" stroke-width="1.51"/><path d="M298,861L349,944L380,942Z" fill="#705f70" stroke="#705f70" stroke-width="1.51"/><path d="M1088,748L1143,669L997,627Z" fill="#140523" stroke="#140523" stroke-width="1.51"/><path d="M763,7L663,15L760,59Z" fill="#b37b8d" stroke="#b37b8d" stroke-width="1.51"/><path d="M760,59L663,15L685,87Z" fill="#b68498" stroke="#b68498" stroke-width="1.51"/><path d="M602,54L530,24L576,134Z" fill="#cea1b4" stroke="#cea1b4" stroke-width="1.51"/><path d="M797,1008L890,978L827,903Z" fill="#282336" stroke="#282336" stroke-width="1.51"/><path d="M1059,915L1091,853L1012,821Z" fill="#12041f" stroke="#12041f" stroke-width="1.51"/><path d="M1012,821L1091,853L1018,789Z" fill="#130420" stroke="#130420" stroke-width="1.51"/><path d="M631,1002L694,1039L644,933Z" fill="#443f53" stroke="#443f53" stroke-width="1.51"/><path d="M438,1030L694,1039L631,1002Z" fill="#4e4b5d" stroke="#4e4b5d" stroke-width="1.51"/><path d="M611,-4L530,24L602,54Z" fill="#d098a9" stroke="#d098a9" stroke-width="1.51"/><path d="M213,382L130,487L213,525Z" fill="#ad8095" stroke="#ad8095" stroke-width="1.51"/><path d="M185,253L205,268L193,189Z" fill="#eabccf" stroke="#eabccf" stroke-width="1.51"/><path d="M221,934L349,944L298,861Z" fill="#735969" stroke="#735969" stroke-width="1.51"/><path d="M380,942L438,1030L476,986Z" fill="#69677a" stroke="#69677a" stroke-width="1.51"/><path d="M205,268L167,345L260,349Z" fill="#d4abc0" stroke="#d4abc0" stroke-width="1.51"/><path d="M1101,219L1019,147L1012,248Z" fill="#72617d" stroke="#72617d" stroke-width="1.51"/><path d="M961,142L976,87L890,103Z" fill="#856077" stroke="#856077" stroke-width="1.51"/><path d="M809,-19L763,7L760,59Z" fill="#a97082" stroke="#a97082" stroke-width="1.51"/><path d="M120,373L130,487L213,382Z" fill="#bd8b9e" stroke="#bd8b9e" stroke-width="1.51"/><path d="M178,538L95,601L188,689Z" fill="#88566b" stroke="#88566b" stroke-width="1.51"/><path d="M663,15L611,-4L602,54Z" fill="#c78e9f" stroke="#c78e9f" stroke-width="1.51"/><path d="M809,-19L760,59L890,103Z" fill="#a06d81" stroke="#a06d81" stroke-width="1.51"/><path d="M643,-91L611,-4L663,15Z" fill="#c68493" stroke="#c68493" stroke-width="1.51"/><path d="M1125,349L1101,219L1010,299Z" fill="#635d7a" stroke="#635d7a" stroke-width="1.51"/><path d="M1200,555L1193,471L1093,590Z" fill="#29213c" stroke="#29213c" stroke-width="1.51"/><path d="M1125,349L1181,244L1101,219Z" fill="#67617d" stroke="#67617d" stroke-width="1.51"/><path d="M1193,471L1189,429L1074,454Z" fill="#3c3550" stroke="#3c3550" stroke-width="1.51"/><path d="M1006,51L976,87L1019,147Z" fill="#7c536a" stroke="#7c536a" stroke-width="1.51"/><path d="M1019,147L976,87L961,142Z" fill="#7d5a73" stroke="#7d5a73" stroke-width="1.51"/><path d="M167,345L120,373L213,382Z" fill="#c999ac" stroke="#c999ac" stroke-width="1.51"/><path d="M205,268L185,253L167,345Z" fill="#deb2c5" stroke="#deb2c5" stroke-width="1.51"/><path d="M193,189L205,268L335,218Z" fill="#e7c0d4" stroke="#e7c0d4" stroke-width="1.51"/><path d="M1143,669L1200,555L1093,590Z" fill="#1b132d" stroke="#1b132d" stroke-width="1.51"/><path d="M1059,915L972,832L923,901Z" fill="#150a23" stroke="#150a23" stroke-width="1.51"/><path d="M1088,748L1223,786L1143,669Z" fill="#130420" stroke="#130420" stroke-width="1.51"/><path d="M1143,669L1220,634L1200,555Z" fill="#181029" stroke="#181029" stroke-width="1.51"/><path d="M347,1022L438,1030L380,942Z" fill="#6c6374" stroke="#6c6374" stroke-width="1.51"/><path d="M476,986L438,1030L631,1002Z" fill="#5b586b" stroke="#5b586b" stroke-width="1.51"/><path d="M89,359L120,373L167,345Z" fill="#cd97a8" stroke="#cd97a8" stroke-width="1.51"/><path d="M120,373L96,477L130,487Z" fill="#b67e90" stroke="#b67e90" stroke-width="1.51"/><path d="M130,487L95,601L178,538Z" fill="#9b667a" stroke="#9b667a" stroke-width="1.51"/><path d="M974,1027L1059,915L923,901Z" fill="#150a21" stroke="#150a21" stroke-width="1.51"/><path d="M895,-52L809,-19L890,103Z" fill="#9a5f72" stroke="#9a5f72" stroke-width="1.51"/><path d="M763,7L643,-91L663,15Z" fill="#bc7b8a" stroke="#bc7b8a" stroke-width="1.51"/><path d="M96,477L95,601L130,487Z" fill="#a1687b" stroke="#a1687b" stroke-width="1.51"/><path d="M188,689L120,750L203,706Z" fill="#7b4d61" stroke="#7b4d61" stroke-width="1.51"/><path d="M95,252L89,359L167,345Z" fill="#d9a2b2" stroke="#d9a2b2" stroke-width="1.51"/><path d="M236,130L193,189L335,218Z" fill="#ebbacb" stroke="#ebbacb" stroke-width="1.51"/><path d="M236,130L335,218L366,107Z" fill="#eabcce" stroke="#eabcce" stroke-width="1.51"/><path d="M236,130L366,107L247,58Z" fill="#efb1be" stroke="#efb1be" stroke-width="1.51"/><path d="M1165,832L1088,748L1091,853Z" fill="#12041f" stroke="#12041f" stroke-width="1.51"/><path d="M1259,732L1220,634L1143,669Z" fill="#130421" stroke="#130421" stroke-width="1.51"/><path d="M1200,555L1242,515L1193,471Z" fill="#2e2740" stroke="#2e2740" stroke-width="1.51"/><path d="M1193,471L1318,408L1189,429Z" fill="#3f3952" stroke="#3f3952" stroke-width="1.51"/><path d="M309,29L366,107L390,94Z" fill="#edb5c4" stroke="#edb5c4" stroke-width="1.51"/><path d="M227,987L347,1022L349,944Z" fill="#715b6a" stroke="#715b6a" stroke-width="1.51"/><path d="M349,944L347,1022L380,942Z" fill="#6e6071" stroke="#6e6071" stroke-width="1.51"/><path d="M95,601L120,750L188,689Z" fill="#7d4a5d" stroke="#7d4a5d" stroke-width="1.51"/><path d="M530,24L487,-32L390,94Z" fill="#e6aebe" stroke="#e6aebe" stroke-width="1.51"/><path d="M611,-4L487,-32L530,24Z" fill="#d99aaa" stroke="#d99aaa" stroke-width="1.51"/><path d="M483,-70L487,-32L611,-4Z" fill="#de98a6" stroke="#de98a6" stroke-width="1.51"/><path d="M221,934L298,861L253,835Z" fill="#755666" stroke="#755666" stroke-width="1.51"/><path d="M1275,597L1242,515L1200,555Z" fill="#251e36" stroke="#251e36" stroke-width="1.51"/><path d="M1189,429L1221,359L1125,349Z" fill="#4d4661" stroke="#4d4661" stroke-width="1.51"/><path d="M976,87L895,-52L890,103Z" fill="#8d5a6e" stroke="#8d5a6e" stroke-width="1.51"/><path d="M1102,77L1006,51L1019,147Z" fill="#7a5167" stroke="#7a5167" stroke-width="1.51"/><path d="M1254,341L1221,359L1318,408Z" fill="#4e4962" stroke="#4e4962" stroke-width="1.51"/><path d="M1149,106L1102,77L1019,147Z" fill="#785469" stroke="#785469" stroke-width="1.51"/><path d="M96,477L26,592L95,601Z" fill="#985b6d" stroke="#985b6d" stroke-width="1.51"/><path d="M120,373L29,400L96,477Z" fill="#be8293" stroke="#be8293" stroke-width="1.51"/><path d="M95,252L167,345L185,253Z" fill="#e1afc1" stroke="#e1afc1" stroke-width="1.51"/><path d="M890,978L974,1027L923,901Z" fill="#1b1528" stroke="#1b1528" stroke-width="1.51"/><path d="M797,1008L974,1027L890,978Z" fill="#201b2d" stroke="#201b2d" stroke-width="1.51"/><path d="M989,1037L974,1027L797,1008Z" fill="#1c1628" stroke="#1c1628" stroke-width="1.51"/><path d="M1116,902L1165,832L1091,853Z" fill="#11031d" stroke="#11031d" stroke-width="1.51"/><path d="M1116,902L1091,853L1059,915Z" fill="#11031e" stroke="#11031e" stroke-width="1.51"/><path d="M1068,1020L1116,902L1059,915Z" fill="#10041c" stroke="#10041c" stroke-width="1.51"/><path d="M1221,359L1181,244L1125,349Z" fill="#5b5670" stroke="#5b5670" stroke-width="1.51"/><path d="M157,880L221,934L253,835Z" fill="#775160" stroke="#775160" stroke-width="1.51"/><path d="M236,130L171,60L193,189Z" fill="#f1acb7" stroke="#f1acb7" stroke-width="1.51"/><path d="M378,-26L309,29L390,94Z" fill="#f0aebb" stroke="#f0aebb" stroke-width="1.51"/><path d="M974,1027L1068,1020L1059,915Z" fill="#10031c" stroke="#10031c" stroke-width="1.51"/><path d="M694,1039L989,1037L797,1008Z" fill="#292436" stroke="#292436" stroke-width="1.51"/><path d="M120,750L157,880L253,835Z" fill="#794e5d" stroke="#794e5d" stroke-width="1.51"/><path d="M799,-76L643,-91L763,7Z" fill="#b56d7c" stroke="#b56d7c" stroke-width="1.51"/><path d="M487,-32L378,-26L390,94Z" fill="#efb1c0" stroke="#efb1c0" stroke-width="1.51"/><path d="M799,-76L763,7L809,-19Z" fill="#a96676" stroke="#a96676" stroke-width="1.51"/><path d="M421,-100L378,-26L487,-32Z" fill="#f2a8b4" stroke="#f2a8b4" stroke-width="1.51"/><path d="M876,-90L799,-76L809,-19Z" fill="#a35b6a" stroke="#a35b6a" stroke-width="1.51"/><path d="M643,-91L483,-70L611,-4Z" fill="#d48b98" stroke="#d48b98" stroke-width="1.51"/><path d="M171,60L247,58L211,9Z" fill="#f59fa7" stroke="#f59fa7" stroke-width="1.51"/><path d="M309,29L247,58L366,107Z" fill="#f0aebb" stroke="#f0aebb" stroke-width="1.51"/><path d="M193,189L95,252L185,253Z" fill="#ecb7c8" stroke="#ecb7c8" stroke-width="1.51"/><path d="M56,152L95,252L193,189Z" fill="#f0adba" stroke="#f0adba" stroke-width="1.51"/><path d="M1318,408L1221,359L1189,429Z" fill="#48425b" stroke="#48425b" stroke-width="1.51"/><path d="M1220,634L1275,597L1200,555Z" fill="#1d152d" stroke="#1d152d" stroke-width="1.51"/><path d="M1322,639L1275,597L1220,634Z" fill="#170e27" stroke="#170e27" stroke-width="1.51"/><path d="M1006,51L895,-52L976,87Z" fill="#875164" stroke="#875164" stroke-width="1.51"/><path d="M1165,832L1223,786L1088,748Z" fill="#12041f" stroke="#12041f" stroke-width="1.51"/><path d="M1268,904L1223,786L1165,832Z" fill="#11031c" stroke="#11031c" stroke-width="1.51"/><path d="M87,794L145,887L157,880Z" fill="#7a4957" stroke="#7a4957" stroke-width="1.51"/><path d="M157,880L145,887L221,934Z" fill="#784e5b" stroke="#784e5b" stroke-width="1.51"/><path d="M221,934L227,987L349,944Z" fill="#745765" stroke="#745765" stroke-width="1.51"/><path d="M1221,359L1254,341L1181,244Z" fill="#5c5670" stroke="#5c5670" stroke-width="1.51"/><path d="M1318,408L1193,471L1242,515Z" fill="#39324a" stroke="#39324a" stroke-width="1.51"/><path d="M120,750L87,794L157,880Z" fill="#7b4857" stroke="#7b4857" stroke-width="1.51"/><path d="M38,690L87,794L120,750Z" fill="#7d4454" stroke="#7d4454" stroke-width="1.51"/><path d="M38,690L120,750L95,601Z" fill="#7e4457" stroke="#7e4457" stroke-width="1.51"/><path d="M181,1017L227,987L221,934Z" fill="#75515c" stroke="#75515c" stroke-width="1.51"/><path d="M1006,51L1025,-8L895,-52Z" fill="#85495c" stroke="#85495c" stroke-width="1.51"/><path d="M1149,106L1019,147L1101,219Z" fill="#755b73" stroke="#755b73" stroke-width="1.51"/><path d="M1149,106L1101,219L1181,244Z" fill="#725f78" stroke="#725f78" stroke-width="1.51"/><path d="M-11,530L26,592L96,477Z" fill="#a05e6e" stroke="#a05e6e" stroke-width="1.51"/><path d="M29,400L120,373L89,359Z" fill="#ca8d9d" stroke="#ca8d9d" stroke-width="1.51"/><path d="M-29,357L29,400L89,359Z" fill="#cd8997" stroke="#cd8997" stroke-width="1.51"/><path d="M1223,786L1259,732L1143,669Z" fill="#120420" stroke="#120420" stroke-width="1.51"/><path d="M26,592L38,690L95,601Z" fill="#864759" stroke="#864759" stroke-width="1.51"/><path d="M1116,902L1198,951L1165,832Z" fill="#10031c" stroke="#10031c" stroke-width="1.51"/><path d="M1382,721L1322,639L1259,732Z" fill="#11041e" stroke="#11041e" stroke-width="1.51"/><path d="M989,1037L1068,1020L974,1027Z" fill="#10031b" stroke="#10031b" stroke-width="1.51"/><path d="M1069,-9L1025,-8L1006,51Z" fill="#7e4558" stroke="#7e4558" stroke-width="1.51"/><path d="M1192,112L1149,106L1181,244Z" fill="#755a6f" stroke="#755a6f" stroke-width="1.51"/><path d="M1069,-9L1006,51L1102,77Z" fill="#7d4a5d" stroke="#7d4a5d" stroke-width="1.51"/><path d="M907,-83L876,-90L895,-52Z" fill="#974c5c" stroke="#974c5c" stroke-width="1.51"/><path d="M895,-52L876,-90L809,-19Z" fill="#9d5666" stroke="#9d5666" stroke-width="1.51"/><path d="M799,-76L630,-142L643,-91Z" fill="#c06e7a" stroke="#c06e7a" stroke-width="1.51"/><path d="M111,1000L181,1017L221,934Z" fill="#774d57" stroke="#774d57" stroke-width="1.51"/><path d="M87,794L70,820L145,887Z" fill="#7b4654" stroke="#7b4654" stroke-width="1.51"/><path d="M-37,755L70,820L87,794Z" fill="#7d404d" stroke="#7d404d" stroke-width="1.51"/><path d="M1025,-8L907,-83L895,-52Z" fill="#8d4859" stroke="#8d4859" stroke-width="1.51"/><path d="M38,690L-37,755L87,794Z" fill="#7e3e4e" stroke="#7e3e4e" stroke-width="1.51"/><path d="M26,592L-17,707L38,690Z" fill="#803d4e" stroke="#803d4e" stroke-width="1.51"/><path d="M29,400L-11,530L96,477Z" fill="#b16f7f" stroke="#b16f7f" stroke-width="1.51"/><path d="M483,-70L421,-100L487,-32Z" fill="#eca0ab" stroke="#eca0ab" stroke-width="1.51"/><path d="M293,-55L211,9L309,29Z" fill="#f59ea6" stroke="#f59ea6" stroke-width="1.51"/><path d="M630,-142L421,-100L483,-70Z" fill="#e4919b" stroke="#e4919b" stroke-width="1.51"/><path d="M630,-142L483,-70L643,-91Z" fill="#d5828d" stroke="#d5828d" stroke-width="1.51"/><path d="M876,-90L630,-142L799,-76Z" fill="#b05f6c" stroke="#b05f6c" stroke-width="1.51"/><path d="M247,58L171,60L236,130Z" fill="#f3a7b1" stroke="#f3a7b1" stroke-width="1.51"/><path d="M-29,357L-39,433L29,400Z" fill="#c77e8b" stroke="#c77e8b" stroke-width="1.51"/><path d="M211,9L247,58L309,29Z" fill="#f4a2ac" stroke="#f4a2ac" stroke-width="1.51"/><path d="M1244,182L1192,112L1181,244Z" fill="#725e74" stroke="#725e74" stroke-width="1.51"/><path d="M1354,502L1318,408L1242,515Z" fill="#363047" stroke="#363047" stroke-width="1.51"/><path d="M1336,555L1242,515L1275,597Z" fill="#251d35" stroke="#251d35" stroke-width="1.51"/><path d="M1118,-72L1069,-9L1155,-60Z" fill="#7f3c4c" stroke="#7f3c4c" stroke-width="1.51"/><path d="M1025,-8L979,-118L907,-83Z" fill="#883f50" stroke="#883f50" stroke-width="1.51"/><path d="M1259,732L1322,639L1220,634Z" fill="#120420" stroke="#120420" stroke-width="1.51"/><path d="M1365,830L1259,732L1223,786Z" fill="#11031d" stroke="#11031d" stroke-width="1.51"/><path d="M1149,106L1155,-60L1102,77Z" fill="#7c495b" stroke="#7c495b" stroke-width="1.51"/><path d="M1244,182L1181,244L1305,248Z" fill="#6e647c" stroke="#6e647c" stroke-width="1.51"/><path d="M293,-55L309,29L378,-26Z" fill="#f4a2ac" stroke="#f4a2ac" stroke-width="1.51"/><path d="M1305,248L1181,244L1254,341Z" fill="#656079" stroke="#656079" stroke-width="1.51"/><path d="M1322,639L1336,555L1275,597Z" fill="#1c152b" stroke="#1c152b" stroke-width="1.51"/><path d="M297,-128L293,-55L378,-26Z" fill="#f699a0" stroke="#f699a0" stroke-width="1.51"/><path d="M227,987L181,1017L347,1022Z" fill="#735561" stroke="#735561" stroke-width="1.51"/><path d="M347,1022L181,1017L438,1030Z" fill="#705c6a" stroke="#705c6a" stroke-width="1.51"/><path d="M111,1000L221,934L145,887Z" fill="#774c57" stroke="#774c57" stroke-width="1.51"/><path d="M1068,1020L1198,951L1116,902Z" fill="#10031b" stroke="#10031b" stroke-width="1.51"/><path d="M1244,182L1202,102L1192,112Z" fill="#76576b" stroke="#76576b" stroke-width="1.51"/><path d="M1192,112L1202,102L1149,106Z" fill="#785366" stroke="#785366" stroke-width="1.51"/><path d="M-66,623L-17,707L26,592Z" fill="#843b4d" stroke="#843b4d" stroke-width="1.51"/><path d="M52,945L111,1000L145,887Z" fill="#794650" stroke="#794650" stroke-width="1.51"/><path d="M1336,555L1354,502L1242,515Z" fill="#2b243c" stroke="#2b243c" stroke-width="1.51"/><path d="M1365,278L1305,248L1254,341Z" fill="#615c74" stroke="#615c74" stroke-width="1.51"/><path d="M1450,580L1354,502L1336,555Z" fill="#262035" stroke="#262035" stroke-width="1.51"/><path d="M29,400L-39,433L-11,530Z" fill="#b76e7d" stroke="#b76e7d" stroke-width="1.51"/><path d="M-11,530L-66,623L26,592Z" fill="#944b5b" stroke="#944b5b" stroke-width="1.51"/><path d="M-29,357L89,359L-20,243Z" fill="#dd96a2" stroke="#dd96a2" stroke-width="1.51"/><path d="M-20,243L89,359L95,252Z" fill="#e5a5b2" stroke="#e5a5b2" stroke-width="1.51"/><path d="M171,60L56,152L193,189Z" fill="#f3a6b1" stroke="#f3a6b1" stroke-width="1.51"/><path d="M44,68L56,152L171,60Z" fill="#f699a0" stroke="#f699a0" stroke-width="1.51"/><path d="M1375,383L1254,341L1318,408Z" fill="#4c465e" stroke="#4c465e" stroke-width="1.51"/><path d="M1244,182L1287,58L1202,102Z" fill="#775466" stroke="#775466" stroke-width="1.51"/><path d="M876,-90L979,-118L630,-142Z" fill="#a4515f" stroke="#a4515f" stroke-width="1.51"/><path d="M907,-83L979,-118L876,-90Z" fill="#924453" stroke="#924453" stroke-width="1.51"/><path d="M1118,-72L979,-118L1025,-8Z" fill="#80394a" stroke="#80394a" stroke-width="1.51"/><path d="M1118,-72L1025,-8L1069,-9Z" fill="#7f3f4f" stroke="#7f3f4f" stroke-width="1.51"/><path d="M1198,951L1268,904L1165,832Z" fill="#10031b" stroke="#10031b" stroke-width="1.51"/><path d="M1322,639L1450,580L1336,555Z" fill="#1d162c" stroke="#1d162c" stroke-width="1.51"/><path d="M52,945L145,887L70,820Z" fill="#7b4550" stroke="#7b4550" stroke-width="1.51"/><path d="M-17,707L-37,755L38,690Z" fill="#7f3a4a" stroke="#7f3a4a" stroke-width="1.51"/><path d="M-103,550L-66,623L-11,530Z" fill="#994a59" stroke="#994a59" stroke-width="1.51"/><path d="M-103,550L-11,530L-113,527Z" fill="#a2505f" stroke="#a2505f" stroke-width="1.51"/><path d="M-109,760L-37,755L-17,707Z" fill="#7f3443" stroke="#7f3443" stroke-width="1.51"/><path d="M-12,180L-20,243L95,252Z" fill="#f2a7b2" stroke="#f2a7b2" stroke-width="1.51"/><path d="M-29,357L-86,381L-39,433Z" fill="#ca7a86" stroke="#ca7a86" stroke-width="1.51"/><path d="M1354,502L1375,383L1318,408Z" fill="#3f3950" stroke="#3f3950" stroke-width="1.51"/><path d="M-16,928L52,945L70,820Z" fill="#7b3f49" stroke="#7b3f49" stroke-width="1.51"/><path d="M1268,904L1303,874L1223,786Z" fill="#10031b" stroke="#10031b" stroke-width="1.51"/><path d="M1354,502L1464,476L1375,383Z" fill="#3a354a" stroke="#3a354a" stroke-width="1.51"/><path d="M1268,904L1405,963L1303,874Z" fill="#0e0318" stroke="#0e0318" stroke-width="1.51"/><path d="M1198,951L1261,977L1268,904Z" fill="#0f0319" stroke="#0f0319" stroke-width="1.51"/><path d="M1068,1020L1212,1013L1198,951Z" fill="#0f0319" stroke="#0f0319" stroke-width="1.51"/><path d="M989,1037L1212,1013L1068,1020Z" fill="#0f031a" stroke="#0f031a" stroke-width="1.51"/><path d="M-37,755L-30,812L70,820Z" fill="#7e3b48" stroke="#7e3b48" stroke-width="1.51"/><path d="M-61,829L-30,812L-37,755Z" fill="#7e3643" stroke="#7e3643" stroke-width="1.51"/><path d="M211,9L137,-14L171,60Z" fill="#f7979d" stroke="#f7979d" stroke-width="1.51"/><path d="M134,-70L137,-14L211,9Z" fill="#f88e92" stroke="#f88e92" stroke-width="1.51"/><path d="M421,-100L297,-128L378,-26Z" fill="#f59ca3" stroke="#f59ca3" stroke-width="1.51"/><path d="M630,-142L297,-128L421,-100Z" fill="#f19aa2" stroke="#f19aa2" stroke-width="1.51"/><path d="M134,-70L211,9L293,-55Z" fill="#f89297" stroke="#f89297" stroke-width="1.51"/><path d="M56,152L-12,180L95,252Z" fill="#f3a5b0" stroke="#f3a5b0" stroke-width="1.51"/><path d="M44,68L-12,180L56,152Z" fill="#f699a0" stroke="#f699a0" stroke-width="1.51"/><path d="M1375,383L1365,278L1254,341Z" fill="#565168" stroke="#565168" stroke-width="1.51"/><path d="M1305,248L1341,162L1244,182Z" fill="#706075" stroke="#706075" stroke-width="1.51"/><path d="M1365,830L1382,721L1259,732Z" fill="#11031c" stroke="#11031c" stroke-width="1.51"/><path d="M-105,338L-29,357L-20,243Z" fill="#e1919b" stroke="#e1919b" stroke-width="1.51"/><path d="M-105,338L-86,381L-29,357Z" fill="#d4818b" stroke="#d4818b" stroke-width="1.51"/><path d="M1155,-60L1069,-9L1102,77Z" fill="#7d4455" stroke="#7d4455" stroke-width="1.51"/><path d="M1155,-60L1149,106L1202,102Z" fill="#7b4b5c" stroke="#7b4b5c" stroke-width="1.51"/><path d="M1212,1013L1261,977L1198,951Z" fill="#0e0318" stroke="#0e0318" stroke-width="1.51"/><path d="M1303,874L1365,830L1223,786Z" fill="#10031b" stroke="#10031b" stroke-width="1.51"/><path d="M-109,760L-61,829L-37,755Z" fill="#7f3340" stroke="#7f3340" stroke-width="1.51"/><path d="M-113,527L-11,530L-39,433Z" fill="#ac5d6b" stroke="#ac5d6b" stroke-width="1.51"/><path d="M77,1L44,68L171,60Z" fill="#f89297" stroke="#f89297" stroke-width="1.51"/><path d="M-109,760L-17,707L-66,623Z" fill="#803443" stroke="#803443" stroke-width="1.51"/><path d="M-86,381L-113,527L-39,433Z" fill="#bb6874" stroke="#bb6874" stroke-width="1.51"/><path d="M1118,-72L1176,-125L979,-118Z" fill="#803242" stroke="#803242" stroke-width="1.51"/><path d="M1287,58L1155,-60L1202,102Z" fill="#7b4958" stroke="#7b4958" stroke-width="1.51"/><path d="M137,-14L77,1L171,60Z" fill="#f89196" stroke="#f89196" stroke-width="1.51"/><path d="M297,-128L264,-142L293,-55Z" fill="#f98f93" stroke="#f98f93" stroke-width="1.51"/><path d="M630,-142L264,-142L297,-128Z" fill="#f6979d" stroke="#f6979d" stroke-width="1.51"/><path d="M1405,963L1365,830L1303,874Z" fill="#0e0319" stroke="#0e0319" stroke-width="1.51"/><path d="M1419,814L1409,696L1382,721Z" fill="#11031c" stroke="#11031c" stroke-width="1.51"/><path d="M1382,721L1409,696L1322,639Z" fill="#12041e" stroke="#12041e" stroke-width="1.51"/><path d="M1375,383L1398,267L1365,278Z" fill="#5b576d" stroke="#5b576d" stroke-width="1.51"/><path d="M1365,278L1341,162L1305,248Z" fill="#6d647a" stroke="#6d647a" stroke-width="1.51"/><path d="M-30,812L-16,928L70,820Z" fill="#7d3c47" stroke="#7d3c47" stroke-width="1.51"/><path d="M-109,760L-66,623L-103,550Z" fill="#833143" stroke="#833143" stroke-width="1.51"/><path d="M134,-70L77,1L137,-14Z" fill="#f9898b" stroke="#f9898b" stroke-width="1.51"/><path d="M-92,221L-20,243L-12,180Z" fill="#f59fa7" stroke="#f59fa7" stroke-width="1.51"/><path d="M-86,381L-105,338L-113,527Z" fill="#c46e7a" stroke="#c46e7a" stroke-width="1.51"/><path d="M-92,221L-105,338L-20,243Z" fill="#ef9ba4" stroke="#ef9ba4" stroke-width="1.51"/><path d="M-92,221L-12,180L-97,127Z" fill="#f7959b" stroke="#f7959b" stroke-width="1.51"/><path d="M-61,829L-16,928L-30,812Z" fill="#7d3741" stroke="#7d3741" stroke-width="1.51"/><path d="M52,945L-32,1002L111,1000Z" fill="#7a4047" stroke="#7a4047" stroke-width="1.51"/><path d="M1341,162L1287,58L1244,182Z" fill="#755769" stroke="#755769" stroke-width="1.51"/><path d="M1341,162L1333,46L1287,58Z" fill="#785160" stroke="#785160" stroke-width="1.51"/><path d="M1365,278L1398,267L1341,162Z" fill="#6c657b" stroke="#6c657b" stroke-width="1.51"/><path d="M1475,293L1398,267L1375,383Z" fill="#5a566b" stroke="#5a566b" stroke-width="1.51"/><path d="M264,-142L134,-70L293,-55Z" fill="#f98c8f" stroke="#f98c8f" stroke-width="1.51"/><path d="M1409,696L1438,667L1322,639Z" fill="#11041e" stroke="#11041e" stroke-width="1.51"/><path d="M1495,711L1438,667L1409,696Z" fill="#10041c" stroke="#10041c" stroke-width="1.51"/><path d="M1438,667L1450,580L1322,639Z" fill="#160d23" stroke="#160d23" stroke-width="1.51"/><path d="M-61,829L-88,887L-16,928Z" fill="#7d353e" stroke="#7d353e" stroke-width="1.51"/><path d="M-113,527L-109,760L-103,550Z" fill="#8c3848" stroke="#8c3848" stroke-width="1.51"/><path d="M-2,42L-12,180L44,68Z" fill="#f89196" stroke="#f89196" stroke-width="1.51"/><path d="M1450,580L1464,476L1354,502Z" fill="#2b263a" stroke="#2b263a" stroke-width="1.51"/><path d="M-49,0L-2,42L77,1Z" fill="#fa8284" stroke="#fa8284" stroke-width="1.51"/><path d="M77,1L-2,42L44,68Z" fill="#f98a8e" stroke="#f98a8e" stroke-width="1.51"/><path d="M1535,622L1464,476L1450,580Z" fill="#221d30" stroke="#221d30" stroke-width="1.51"/><path d="M1535,622L1512,452L1464,476Z" fill="#2c2639" stroke="#2c2639" stroke-width="1.51"/><path d="M1365,830L1419,814L1382,721Z" fill="#10031b" stroke="#10031b" stroke-width="1.51"/><path d="M1405,963L1419,814L1365,830Z" fill="#0e0319" stroke="#0e0319" stroke-width="1.51"/><path d="M-109,760L-88,887L-61,829Z" fill="#7f313c" stroke="#7f313c" stroke-width="1.51"/><path d="M1458,115L1333,46L1341,162Z" fill="#765361" stroke="#765361" stroke-width="1.51"/><path d="M1464,476L1472,389L1375,383Z" fill="#423d52" stroke="#423d52" stroke-width="1.51"/><path d="M1299,-113L1176,-125L1155,-60Z" fill="#7f3440" stroke="#7f3440" stroke-width="1.51"/><path d="M1451,239L1341,162L1398,267Z" fill="#6d6378" stroke="#6d6378" stroke-width="1.51"/><path d="M1318,-18L1155,-60L1287,58Z" fill="#7c434f" stroke="#7c434f" stroke-width="1.51"/><path d="M1155,-60L1176,-125L1118,-72Z" fill="#7f3644" stroke="#7f3644" stroke-width="1.51"/><path d="M979,-118L1176,-125L630,-142Z" fill="#913c4d" stroke="#913c4d" stroke-width="1.51"/><path d="M-64,976L-32,1002L-16,928Z" fill="#7b373d" stroke="#7b373d" stroke-width="1.51"/><path d="M-16,928L-32,1002L52,945Z" fill="#7b3c42" stroke="#7b3c42" stroke-width="1.51"/><path d="M111,1000L-32,1002L181,1017Z" fill="#79454b" stroke="#79454b" stroke-width="1.51"/><path d="M134,-70L70,-85L77,1Z" fill="#fa8183" stroke="#fa8183" stroke-width="1.51"/><path d="M264,-142L70,-85L134,-70Z" fill="#fa8183" stroke="#fa8183" stroke-width="1.51"/><path d="M1475,293L1451,239L1398,267Z" fill="#656277" stroke="#656277" stroke-width="1.51"/><path d="M-88,887L-64,976L-16,928Z" fill="#7c353c" stroke="#7c353c" stroke-width="1.51"/><path d="M-79,72L-97,127L-12,180Z" fill="#f98d91" stroke="#f98d91" stroke-width="1.51"/><path d="M-92,221L-97,127L-105,338Z" fill="#f69aa1" stroke="#f69aa1" stroke-width="1.51"/><path d="M-105,338L-113,7L-113,527Z" fill="#e99099" stroke="#e99099" stroke-width="1.51"/><path d="M-79,72L-12,180L-2,42Z" fill="#f98c90" stroke="#f98c90" stroke-width="1.51"/><path d="M1472,389L1475,293L1375,383Z" fill="#504c61" stroke="#504c61" stroke-width="1.51"/><path d="M1333,46L1318,-18L1287,58Z" fill="#7a4854" stroke="#7a4854" stroke-width="1.51"/><path d="M1330,-31L1318,-18L1333,46Z" fill="#7b434e" stroke="#7b434e" stroke-width="1.51"/><path d="M1464,476L1512,452L1472,389Z" fill="#3c374b" stroke="#3c374b" stroke-width="1.51"/><path d="M1472,389L1512,312L1475,293Z" fill="#555266" stroke="#555266" stroke-width="1.51"/><path d="M1535,622L1450,580L1438,667Z" fill="#160f22" stroke="#160f22" stroke-width="1.51"/><path d="M1419,814L1495,711L1409,696Z" fill="#10031b" stroke="#10031b" stroke-width="1.51"/><path d="M-49,0L-79,72L-2,42Z" fill="#fa8082" stroke="#fa8082" stroke-width="1.51"/><path d="M1261,977L1405,963L1268,904Z" fill="#0e0318" stroke="#0e0318" stroke-width="1.51"/><path d="M1419,814L1528,750L1495,711Z" fill="#0f031a" stroke="#0f031a" stroke-width="1.51"/><path d="M1399,1047L1405,963L1261,977Z" fill="#0c0315" stroke="#0c0315" stroke-width="1.51"/><path d="M1318,-18L1299,-113L1155,-60Z" fill="#7d3a45" stroke="#7d3a45" stroke-width="1.51"/><path d="M1455,6L1330,-31L1333,46Z" fill="#7a454f" stroke="#7a454f" stroke-width="1.51"/><path d="M70,-85L-49,0L77,1Z" fill="#fa7e7f" stroke="#fa7e7f" stroke-width="1.51"/><path d="M1451,239L1458,115L1341,162Z" fill="#715c6d" stroke="#715c6d" stroke-width="1.51"/><path d="M1475,293L1534,195L1451,239Z" fill="#6a6678" stroke="#6a6678" stroke-width="1.51"/><path d="M1565,397L1512,312L1472,389Z" fill="#4d495c" stroke="#4d495c" stroke-width="1.51"/><path d="M1512,452L1565,397L1472,389Z" fill="#423e51" stroke="#423e51" stroke-width="1.51"/><path d="M1538,660L1535,622L1438,667Z" fill="#11041d" stroke="#11041d" stroke-width="1.51"/><path d="M1538,660L1438,667L1495,711Z" fill="#10031b" stroke="#10031b" stroke-width="1.51"/><path d="M1528,750L1538,660L1495,711Z" fill="#0f031a" stroke="#0f031a" stroke-width="1.51"/><path d="M1535,622L1565,397L1512,452Z" fill="#312c3e" stroke="#312c3e" stroke-width="1.51"/><path d="M1503,153L1458,115L1451,239Z" fill="#715c6b" stroke="#715c6b" stroke-width="1.51"/><path d="M1572,812L1528,750L1419,814Z" fill="#0e0318" stroke="#0e0318" stroke-width="1.51"/><path d="M1330,-31L1299,-113L1318,-18Z" fill="#7c3b46" stroke="#7c3b46" stroke-width="1.51"/><path d="M1394,-88L1299,-113L1330,-31Z" fill="#7d3741" stroke="#7d3741" stroke-width="1.51"/><path d="M1405,963L1492,908L1419,814Z" fill="#0d0317" stroke="#0d0317" stroke-width="1.51"/><path d="M1212,1013L1399,1047L1261,977Z" fill="#0d0216" stroke="#0d0216" stroke-width="1.51"/><path d="M989,1037L1399,1047L1212,1013Z" fill="#0e0317" stroke="#0e0317" stroke-width="1.51"/><path d="M694,1039L1399,1047L989,1037Z" fill="#10031a" stroke="#10031a" stroke-width="1.51"/><path d="M1399,1047L1418,1032L1405,963Z" fill="#0b0313" stroke="#0b0313" stroke-width="1.51"/><path d="M1538,660L1565,397L1535,622Z" fill="#221c2e" stroke="#221c2e" stroke-width="1.51"/><path d="M1534,195L1503,153L1451,239Z" fill="#6e6070" stroke="#6e6070" stroke-width="1.51"/><path d="M1506,1047L1492,908L1405,963Z" fill="#0b0313" stroke="#0b0313" stroke-width="1.51"/><path d="M1534,195L1475,293L1512,312Z" fill="#656274" stroke="#656274" stroke-width="1.51"/><path d="M1458,115L1472,53L1333,46Z" fill="#774e5a" stroke="#774e5a" stroke-width="1.51"/><path d="M-49,0L-113,7L-79,72Z" fill="#fb797a" stroke="#fb797a" stroke-width="1.51"/><path d="M-79,72L-113,7L-97,127Z" fill="#fa7f81" stroke="#fa7f81" stroke-width="1.51"/><path d="M-97,127L-113,7L-105,338Z" fill="#f88e92" stroke="#f88e92" stroke-width="1.51"/><path d="M-106,-94L-113,7L-49,0Z" fill="#fb6e6e" stroke="#fb6e6e" stroke-width="1.51"/><path d="M-106,-94L-46,-83L70,-85Z" fill="#fb6b6b" stroke="#fb6b6b" stroke-width="1.51"/><path d="M70,-85L-46,-83L-49,0Z" fill="#fb7474" stroke="#fb7474" stroke-width="1.51"/><path d="M1565,397L1534,195L1512,312Z" fill="#5c596c" stroke="#5c596c" stroke-width="1.51"/><path d="M1582,54L1472,53L1503,153Z" fill="#75505a" stroke="#75505a" stroke-width="1.51"/><path d="M1503,153L1472,53L1458,115Z" fill="#75545f" stroke="#75545f" stroke-width="1.51"/><path d="M1472,53L1455,6L1333,46Z" fill="#794953" stroke="#794953" stroke-width="1.51"/><path d="M1558,-51L1455,6L1472,53Z" fill="#79444b" stroke="#79444b" stroke-width="1.51"/><path d="M1455,6L1394,-88L1330,-31Z" fill="#7b3e47" stroke="#7b3e47" stroke-width="1.51"/><path d="M1492,908L1572,812L1419,814Z" fill="#0d0217" stroke="#0d0217" stroke-width="1.51"/><path d="M1528,750L1572,812L1538,660Z" fill="#0f0319" stroke="#0f0319" stroke-width="1.51"/><path d="M1538,660L1572,812L1565,397Z" fill="#160e21" stroke="#160e21" stroke-width="1.51"/><path d="M1562,914L1572,812L1492,908Z" fill="#0c0315" stroke="#0c0315" stroke-width="1.51"/><path d="M-46,-83L-106,-94L-49,0Z" fill="#fc6b6b" stroke="#fc6b6b" stroke-width="1.51"/><path d="M264,-142L-106,-94L70,-85Z" fill="#fb7576" stroke="#fb7576" stroke-width="1.51"/><path d="M1506,1047L1562,914L1492,908Z" fill="#0b0313" stroke="#0b0313" stroke-width="1.51"/><path d="M1455,6L1418,-105L1394,-88Z" fill="#7b3a42" stroke="#7b3a42" stroke-width="1.51"/><path d="M1394,-88L1418,-105L1299,-113Z" fill="#7d333c" stroke="#7d333c" stroke-width="1.51"/><path d="M1299,-113L1569,-131L1176,-125Z" fill="#7d3039" stroke="#7d3039" stroke-width="1.51"/><path d="M1558,-51L1418,-105L1455,6Z" fill="#7b3d42" stroke="#7b3d42" stroke-width="1.51"/><path d="M1418,1032L1506,1047L1405,963Z" fill="#0b0313" stroke="#0b0313" stroke-width="1.51"/><path d="M1399,1047L1506,1047L1418,1032Z" fill="#0a0312" stroke="#0a0312" stroke-width="1.51"/><path d="M1534,195L1582,54L1503,153Z" fill="#725763" stroke="#725763" stroke-width="1.51"/><path d="M1565,397L1582,54L1534,195Z" fill="#6c6271" stroke="#6c6271" stroke-width="1.51"/><path d="M1572,812L1582,54L1565,397Z" fill="#403c4e" stroke="#403c4e" stroke-width="1.51"/><path d="M1582,54L1558,-51L1472,53Z" fill="#78474d" stroke="#78474d" stroke-width="1.51"/><path d="M1558,-51L1569,-131L1418,-105Z" fill="#7b3539" stroke="#7b3539" stroke-width="1.51"/><path d="M1418,-105L1569,-131L1299,-113Z" fill="#7c3138" stroke="#7c3138" stroke-width="1.51"/><path d="M1176,-125L1569,-131L630,-142Z" fill="#802d3c" stroke="#802d3c" stroke-width="1.51"/><path d="M1582,54L1569,-131L1558,-51Z" fill="#793d41" stroke="#793d41" stroke-width="1.51"/></svg>