<svg xmlns="http://www.w3.org/2000/svg" width="400" height="800"><path d="M211,368L254,361L245,324Z" fill="#792b2d" stroke="#792b2d" stroke-width="1.51"/><path d="M245,324L198,308L211,368Z" fill="#7e2c2e" stroke="#7e2c2e" stroke-width="1.51"/><path d="M211,368L260,427L254,361Z" fill="#742a2b" stroke="#742a2b" stroke-width="1.51"/><path d="M147,374L191,417L211,368Z" fill="#7f2d2e" stroke="#7f2d2e" stroke-width="1.51"/><path d="M254,361L309,319L245,324Z" fill="#752a2b" stroke="#752a2b" stroke-width="1.51"/><path d="M245,324L260,258L198,308Z" fill="#802c2f" stroke="#802c2f" stroke-width="1.51"/><path d="M316,373L309,319L254,361Z" fill="#6e282a" stroke="#6e282a" stroke-width="1.51"/><path d="M191,417L260,427L211,368Z" fill="#752a2c" stroke="#752a2c" stroke-width="1.51"/><path d="M198,308L147,374L211,368Z" fill="#832e30" stroke="#832e30" stroke-width="1.51"/><path d="M260,427L316,373L254,361Z" fill="#6d282a" stroke="#6d282a" stroke-width="1.51"/><path d="M309,319L260,258L245,324Z" fill="#782b2d" stroke="#782b2d" stroke-width="1.51"/><path d="M198,308L143,307L147,374Z" fill="#8a2f31" stroke="#8a2f31" stroke-width="1.51"/><path d="M189,256L143,307L198,308Z" fill="#8c3032" stroke="#8c3032" stroke-width="1.51"/><path d="M260,258L189,256L198,308Z" fill="#862e30" stroke="#862e30" stroke-width="1.51"/><path d="M147,374L152,429L191,417Z" fill="#812d2f" stroke="#812d2f" stroke-width="1.51"/><path d="M191,417L200,480L260,427Z" fill="#71282b" stroke="#71282b" stroke-width="1.51"/><path d="M260,427L303,435L316,373Z" fill="#672628" stroke="#672628" stroke-width="1.51"/><path d="M264,492L303,435L260,427Z" fill="#652528" stroke="#652528" stroke-width="1.51"/><path d="M309,319L321,260L260,258Z" fill="#762a2c" stroke="#762a2c" stroke-width="1.51"/><path d="M363,325L321,260L309,319Z" fill="#6d2729" stroke="#6d2729" stroke-width="1.51"/><path d="M189,256L151,248L143,307Z" fill="#923133" stroke="#923133" stroke-width="1.51"/><path d="M201,208L151,248L189,256Z" fill="#923133" stroke="#923133" stroke-width="1.51"/><path d="M201,208L189,256L260,258Z" fill="#8a2f31" stroke="#8a2f31" stroke-width="1.51"/><path d="M316,373L360,363L309,319Z" fill="#672628" stroke="#672628" stroke-width="1.51"/><path d="M371,427L360,363L316,373Z" fill="#5f2426" stroke="#5f2426" stroke-width="1.51"/><path d="M360,363L363,325L309,319Z" fill="#662628" stroke="#662628" stroke-width="1.51"/><path d="M152,429L200,480L191,417Z" fill="#792b2d" stroke="#792b2d" stroke-width="1.51"/><path d="M143,307L95,322L147,374Z" fill="#903133" stroke="#903133" stroke-width="1.51"/><path d="M147,374L84,432L152,429Z" fill="#872e31" stroke="#872e31" stroke-width="1.51"/><path d="M85,270L95,322L143,307Z" fill="#983435" stroke="#983435" stroke-width="1.51"/><path d="M95,322L90,368L147,374Z" fill="#913133" stroke="#913133" stroke-width="1.51"/><path d="M152,429L133,477L200,480Z" fill="#7a2b2d" stroke="#7a2b2d" stroke-width="1.51"/><path d="M264,205L201,208L260,258Z" fill="#872f30" stroke="#872f30" stroke-width="1.51"/><path d="M322,214L264,205L260,258Z" fill="#7f2c2e" stroke="#7f2c2e" stroke-width="1.51"/><path d="M200,480L264,492L260,427Z" fill="#6a2729" stroke="#6a2729" stroke-width="1.51"/><path d="M303,435L371,427L316,373Z" fill="#602426" stroke="#602426" stroke-width="1.51"/><path d="M321,260L322,214L260,258Z" fill="#792b2d" stroke="#792b2d" stroke-width="1.51"/><path d="M363,325L361,255L321,260Z" fill="#6c2729" stroke="#6c2729" stroke-width="1.51"/><path d="M84,432L133,477L152,429Z" fill="#842e2f" stroke="#842e2f" stroke-width="1.51"/><path d="M200,480L246,535L264,492Z" fill="#672528" stroke="#672528" stroke-width="1.51"/><path d="M361,255L322,214L321,260Z" fill="#72292b" stroke="#72292b" stroke-width="1.51"/><path d="M319,490L371,427L303,435Z" fill="#5b2325" stroke="#5b2325" stroke-width="1.51"/><path d="M360,363L420,376L363,325Z" fill="#5d2325" stroke="#5d2325" stroke-width="1.51"/><path d="M363,325L430,318L361,255Z" fill="#632527" stroke="#632527" stroke-width="1.51"/><path d="M151,248L85,270L143,307Z" fill="#983335" stroke="#983335" stroke-width="1.51"/><path d="M30,310L29,372L90,368Z" fill="#9e3536" stroke="#9e3536" stroke-width="1.51"/><path d="M93,199L85,270L151,248Z" fill="#9f3537" stroke="#9f3537" stroke-width="1.51"/><path d="M264,492L319,490L303,435Z" fill="#5f2426" stroke="#5f2426" stroke-width="1.51"/><path d="M90,368L84,432L147,374Z" fill="#8d3132" stroke="#8d3132" stroke-width="1.51"/><path d="M29,372L84,432L90,368Z" fill="#963334" stroke="#963334" stroke-width="1.51"/><path d="M201,208L147,193L151,248Z" fill="#973335" stroke="#973335" stroke-width="1.51"/><path d="M196,149L147,193L201,208Z" fill="#983335" stroke="#983335" stroke-width="1.51"/><path d="M361,255L357,209L322,214Z" fill="#72292b" stroke="#72292b" stroke-width="1.51"/><path d="M313,142L251,157L264,205Z" fill="#872f31" stroke="#872f31" stroke-width="1.51"/><path d="M264,205L251,157L201,208Z" fill="#8c3032" stroke="#8c3032" stroke-width="1.51"/><path d="M264,492L315,547L319,490Z" fill="#5a2324" stroke="#5a2324" stroke-width="1.51"/><path d="M208,549L246,535L200,480Z" fill="#682628" stroke="#682628" stroke-width="1.51"/><path d="M313,142L264,205L322,214Z" fill="#802d2f" stroke="#802d2f" stroke-width="1.51"/><path d="M371,427L420,376L360,363Z" fill="#582224" stroke="#582224" stroke-width="1.51"/><path d="M361,255L414,203L357,209Z" fill="#6d272a" stroke="#6d272a" stroke-width="1.51"/><path d="M434,420L420,376L371,427Z" fill="#512023" stroke="#512023" stroke-width="1.51"/><path d="M84,432L90,483L133,477Z" fill="#862e30" stroke="#862e30" stroke-width="1.51"/><path d="M140,546L208,549L200,480Z" fill="#6f282a" stroke="#6f282a" stroke-width="1.51"/><path d="M319,490L365,490L371,427Z" fill="#552123" stroke="#552123" stroke-width="1.51"/><path d="M363,544L365,490L319,490Z" fill="#512022" stroke="#512022" stroke-width="1.51"/><path d="M251,157L196,149L201,208Z" fill="#933134" stroke="#933134" stroke-width="1.51"/><path d="M89,147L93,199L147,193Z" fill="#a73739" stroke="#a73739" stroke-width="1.51"/><path d="M147,193L93,199L151,248Z" fill="#9f3436" stroke="#9f3436" stroke-width="1.51"/><path d="M30,310L95,322L85,270Z" fill="#a03537" stroke="#a03537" stroke-width="1.51"/><path d="M30,310L90,368L95,322Z" fill="#9c3436" stroke="#9c3436" stroke-width="1.51"/><path d="M84,432L33,476L90,483Z" fill="#8c3032" stroke="#8c3032" stroke-width="1.51"/><path d="M420,376L430,318L363,325Z" fill="#5a2225" stroke="#5a2225" stroke-width="1.51"/><path d="M140,546L200,480L133,477Z" fill="#762b2c" stroke="#762b2c" stroke-width="1.51"/><path d="M31,268L30,310L85,270Z" fill="#a73739" stroke="#a73739" stroke-width="1.51"/><path d="M93,199L31,268L85,270Z" fill="#a73739" stroke="#a73739" stroke-width="1.51"/><path d="M420,477L434,420L371,427Z" fill="#4e1f22" stroke="#4e1f22" stroke-width="1.51"/><path d="M420,376L472,367L430,318Z" fill="#522022" stroke="#522022" stroke-width="1.51"/><path d="M246,535L315,547L264,492Z" fill="#5d2326" stroke="#5d2326" stroke-width="1.51"/><path d="M365,490L420,477L371,427Z" fill="#4f1f22" stroke="#4f1f22" stroke-width="1.51"/><path d="M262,600L315,547L246,535Z" fill="#592224" stroke="#592224" stroke-width="1.51"/><path d="M90,483L140,546L133,477Z" fill="#7d2c2e" stroke="#7d2c2e" stroke-width="1.51"/><path d="M90,483L90,550L140,546Z" fill="#7d2c2e" stroke="#7d2c2e" stroke-width="1.51"/><path d="M29,372L28,437L84,432Z" fill="#973334" stroke="#973334" stroke-width="1.51"/><path d="M251,157L197,97L196,149Z" fill="#973335" stroke="#973335" stroke-width="1.51"/><path d="M357,209L313,142L322,214Z" fill="#7a2b2d" stroke="#7a2b2d" stroke-width="1.51"/><path d="M378,137L313,142L357,209Z" fill="#792b2d" stroke="#792b2d" stroke-width="1.51"/><path d="M196,149L149,140L147,193Z" fill="#9e3537" stroke="#9e3537" stroke-width="1.51"/><path d="M197,97L149,140L196,149Z" fill="#a03537" stroke="#a03537" stroke-width="1.51"/><path d="M430,318L435,249L361,255Z" fill="#612427" stroke="#612427" stroke-width="1.51"/><path d="M489,270L435,249L430,318Z" fill="#582224" stroke="#582224" stroke-width="1.51"/><path d="M428,550L420,477L365,490Z" fill="#471d20" stroke="#471d20" stroke-width="1.51"/><path d="M435,249L414,203L361,255Z" fill="#662628" stroke="#662628" stroke-width="1.51"/><path d="M28,437L33,476L84,432Z" fill="#933233" stroke="#933233" stroke-width="1.51"/><path d="M315,547L363,544L319,490Z" fill="#522022" stroke="#522022" stroke-width="1.51"/><path d="M208,549L207,589L246,535Z" fill="#632527" stroke="#632527" stroke-width="1.51"/><path d="M315,547L320,590L363,544Z" fill="#4e1f21" stroke="#4e1f21" stroke-width="1.51"/><path d="M149,596L207,589L208,549Z" fill="#682628" stroke="#682628" stroke-width="1.51"/><path d="M434,420L472,367L420,376Z" fill="#4e1f21" stroke="#4e1f21" stroke-width="1.51"/><path d="M485,419L472,367L434,420Z" fill="#491d20" stroke="#491d20" stroke-width="1.51"/><path d="M472,367L472,325L430,318Z" fill="#501f22" stroke="#501f22" stroke-width="1.51"/><path d="M481,206L433,150L414,203Z" fill="#652528" stroke="#652528" stroke-width="1.51"/><path d="M149,140L89,147L147,193Z" fill="#a63739" stroke="#a63739" stroke-width="1.51"/><path d="M93,199L30,194L31,268Z" fill="#ae393b" stroke="#ae393b" stroke-width="1.51"/><path d="M140,546L149,596L208,549Z" fill="#6e282a" stroke="#6e282a" stroke-width="1.51"/><path d="M23,531L90,550L90,483Z" fill="#862e30" stroke="#862e30" stroke-width="1.51"/><path d="M29,372L-21,418L28,437Z" fill="#9f3537" stroke="#9f3537" stroke-width="1.51"/><path d="M28,437L-18,474L33,476Z" fill="#973335" stroke="#973335" stroke-width="1.51"/><path d="M30,310L-21,363L29,372Z" fill="#a63639" stroke="#a63639" stroke-width="1.51"/><path d="M-23,318L-21,363L30,310Z" fill="#ac383a" stroke="#ac383a" stroke-width="1.51"/><path d="M-23,318L30,310L-26,262Z" fill="#b13a3b" stroke="#b13a3b" stroke-width="1.51"/><path d="M89,147L30,194L93,199Z" fill="#af393b" stroke="#af393b" stroke-width="1.51"/><path d="M245,84L197,97L251,157Z" fill="#973335" stroke="#973335" stroke-width="1.51"/><path d="M149,140L78,96L89,147Z" fill="#af393b" stroke="#af393b" stroke-width="1.51"/><path d="M-26,262L30,310L31,268Z" fill="#af393b" stroke="#af393b" stroke-width="1.51"/><path d="M207,589L262,600L246,535Z" fill="#5e2426" stroke="#5e2426" stroke-width="1.51"/><path d="M414,203L378,137L357,209Z" fill="#70292b" stroke="#70292b" stroke-width="1.51"/><path d="M313,142L245,84L251,157Z" fill="#8d3032" stroke="#8d3032" stroke-width="1.51"/><path d="M262,600L320,590L315,547Z" fill="#522022" stroke="#522022" stroke-width="1.51"/><path d="M-21,363L-21,418L29,372Z" fill="#a53638" stroke="#a53638" stroke-width="1.51"/><path d="M33,476L23,531L90,483Z" fill="#8c3032" stroke="#8c3032" stroke-width="1.51"/><path d="M-75,370L-21,418L-21,363Z" fill="#ac383a" stroke="#ac383a" stroke-width="1.51"/><path d="M90,550L149,596L140,546Z" fill="#752a2c" stroke="#752a2c" stroke-width="1.51"/><path d="M207,589L259,649L262,600Z" fill="#592224" stroke="#592224" stroke-width="1.51"/><path d="M316,81L245,84L313,142Z" fill="#8c3032" stroke="#8c3032" stroke-width="1.51"/><path d="M472,485L485,419L434,420Z" fill="#441c1f" stroke="#441c1f" stroke-width="1.51"/><path d="M528,322L489,270L472,325Z" fill="#4d1e21" stroke="#4d1e21" stroke-width="1.51"/><path d="M472,485L434,420L420,477Z" fill="#461c1f" stroke="#461c1f" stroke-width="1.51"/><path d="M472,485L420,477L428,550Z" fill="#421b1e" stroke="#421b1e" stroke-width="1.51"/><path d="M-23,318L-75,370L-21,363Z" fill="#b1393b" stroke="#b1393b" stroke-width="1.51"/><path d="M30,194L-26,262L31,268Z" fill="#b43a3c" stroke="#b43a3c" stroke-width="1.51"/><path d="M528,322L472,325L472,367Z" fill="#4a1e20" stroke="#4a1e20" stroke-width="1.51"/><path d="M472,325L489,270L430,318Z" fill="#532023" stroke="#532023" stroke-width="1.51"/><path d="M414,203L433,150L378,137Z" fill="#6e282a" stroke="#6e282a" stroke-width="1.51"/><path d="M89,147L33,150L30,194Z" fill="#b63a3c" stroke="#b63a3c" stroke-width="1.51"/><path d="M197,97L151,88L149,140Z" fill="#a53738" stroke="#a53738" stroke-width="1.51"/><path d="M189,29L151,88L197,97Z" fill="#a63738" stroke="#a63738" stroke-width="1.51"/><path d="M320,590L363,588L363,544Z" fill="#4a1e20" stroke="#4a1e20" stroke-width="1.51"/><path d="M357,648L363,588L320,590Z" fill="#461c20" stroke="#461c20" stroke-width="1.51"/><path d="M-18,474L23,531L33,476Z" fill="#943234" stroke="#943234" stroke-width="1.51"/><path d="M90,550L90,606L149,596Z" fill="#762a2c" stroke="#762a2c" stroke-width="1.51"/><path d="M-21,418L-18,474L28,437Z" fill="#9e3437" stroke="#9e3437" stroke-width="1.51"/><path d="M30,194L-23,196L-26,262Z" fill="#bb3c3e" stroke="#bb3c3e" stroke-width="1.51"/><path d="M78,96L33,150L89,147Z" fill="#b63b3c" stroke="#b63b3c" stroke-width="1.51"/><path d="M428,550L365,490L363,544Z" fill="#481d20" stroke="#481d20" stroke-width="1.51"/><path d="M359,91L316,81L313,142Z" fill="#842e30" stroke="#842e30" stroke-width="1.51"/><path d="M378,137L359,91L313,142Z" fill="#7e2c2e" stroke="#7e2c2e" stroke-width="1.51"/><path d="M481,206L414,203L435,249Z" fill="#612427" stroke="#612427" stroke-width="1.51"/><path d="M363,588L428,550L363,544Z" fill="#451c1f" stroke="#451c1f" stroke-width="1.51"/><path d="M428,92L359,91L378,137Z" fill="#782b2d" stroke="#782b2d" stroke-width="1.51"/><path d="M489,270L481,206L435,249Z" fill="#592224" stroke="#592224" stroke-width="1.51"/><path d="M151,88L78,96L149,140Z" fill="#ad393a" stroke="#ad393a" stroke-width="1.51"/><path d="M35,601L90,606L90,550Z" fill="#7d2c2e" stroke="#7d2c2e" stroke-width="1.51"/><path d="M197,657L259,649L207,589Z" fill="#5b2325" stroke="#5b2325" stroke-width="1.51"/><path d="M33,150L-23,196L30,194Z" fill="#bb3c3e" stroke="#bb3c3e" stroke-width="1.51"/><path d="M-31,136L-23,196L33,150Z" fill="#c23d40" stroke="#c23d40" stroke-width="1.51"/><path d="M543,381L472,367L485,419Z" fill="#431c1f" stroke="#431c1f" stroke-width="1.51"/><path d="M543,381L528,322L472,367Z" fill="#451c1f" stroke="#451c1f" stroke-width="1.51"/><path d="M489,270L545,254L481,206Z" fill="#522022" stroke="#522022" stroke-width="1.51"/><path d="M262,600L318,658L320,590Z" fill="#4e1f21" stroke="#4e1f21" stroke-width="1.51"/><path d="M475,591L473,542L428,550Z" fill="#38181b" stroke="#38181b" stroke-width="1.51"/><path d="M197,657L207,589L149,596Z" fill="#642527" stroke="#642527" stroke-width="1.51"/><path d="M-21,418L-77,430L-18,474Z" fill="#a53638" stroke="#a53638" stroke-width="1.51"/><path d="M-88,323L-75,370L-23,318Z" fill="#b73b3d" stroke="#b73b3d" stroke-width="1.51"/><path d="M-88,323L-23,318L-26,262Z" fill="#b83b3d" stroke="#b83b3d" stroke-width="1.51"/><path d="M142,655L197,657L149,596Z" fill="#662628" stroke="#662628" stroke-width="1.51"/><path d="M417,599L428,550L363,588Z" fill="#401a1d" stroke="#401a1d" stroke-width="1.51"/><path d="M428,550L473,542L472,485Z" fill="#3c191c" stroke="#3c191c" stroke-width="1.51"/><path d="M539,425L543,381L485,419Z" fill="#401b1e" stroke="#401b1e" stroke-width="1.51"/><path d="M357,648L417,599L363,588Z" fill="#401b1d" stroke="#401b1d" stroke-width="1.51"/><path d="M316,81L254,34L245,84Z" fill="#953234" stroke="#953234" stroke-width="1.51"/><path d="M245,84L189,29L197,97Z" fill="#a03537" stroke="#a03537" stroke-width="1.51"/><path d="M151,88L94,27L78,96Z" fill="#b63b3c" stroke="#b63b3c" stroke-width="1.51"/><path d="M313,34L254,34L316,81Z" fill="#923134" stroke="#923134" stroke-width="1.51"/><path d="M539,425L485,419L472,485Z" fill="#3d1a1d" stroke="#3d1a1d" stroke-width="1.51"/><path d="M-75,370L-77,430L-21,418Z" fill="#ae393a" stroke="#ae393a" stroke-width="1.51"/><path d="M-29,543L35,601L23,531Z" fill="#8d3032" stroke="#8d3032" stroke-width="1.51"/><path d="M23,531L35,601L90,550Z" fill="#842e30" stroke="#842e30" stroke-width="1.51"/><path d="M-87,249L-88,323L-26,262Z" fill="#c03d3f" stroke="#c03d3f" stroke-width="1.51"/><path d="M-75,370L-88,323L-77,430Z" fill="#b63b3d" stroke="#b63b3d" stroke-width="1.51"/><path d="M546,483L539,425L472,485Z" fill="#3a191c" stroke="#3a191c" stroke-width="1.51"/><path d="M90,606L142,655L149,596Z" fill="#6e282a" stroke="#6e282a" stroke-width="1.51"/><path d="M-29,543L23,531L-18,474Z" fill="#953334" stroke="#953334" stroke-width="1.51"/><path d="M98,657L142,655L90,606Z" fill="#6f282b" stroke="#6f282b" stroke-width="1.51"/><path d="M254,34L189,29L245,84Z" fill="#9f3537" stroke="#9f3537" stroke-width="1.51"/><path d="M259,649L318,658L262,600Z" fill="#502022" stroke="#502022" stroke-width="1.51"/><path d="M263,698L318,658L259,649Z" fill="#4c1f21" stroke="#4c1f21" stroke-width="1.51"/><path d="M359,91L313,34L316,81Z" fill="#882f31" stroke="#882f31" stroke-width="1.51"/><path d="M433,150L428,92L378,137Z" fill="#71292b" stroke="#71292b" stroke-width="1.51"/><path d="M480,140L428,92L433,150Z" fill="#6b2729" stroke="#6b2729" stroke-width="1.51"/><path d="M254,34L204,-12L189,29Z" fill="#a63639" stroke="#a63639" stroke-width="1.51"/><path d="M377,35L313,34L359,91Z" fill="#862e31" stroke="#862e31" stroke-width="1.51"/><path d="M-79,537L-29,543L-18,474Z" fill="#9c3436" stroke="#9c3436" stroke-width="1.51"/><path d="M78,96L41,83L33,150Z" fill="#bc3c3e" stroke="#bc3c3e" stroke-width="1.51"/><path d="M94,27L41,83L78,96Z" fill="#bd3d3f" stroke="#bd3d3f" stroke-width="1.51"/><path d="M526,158L480,140L481,206Z" fill="#5d2326" stroke="#5d2326" stroke-width="1.51"/><path d="M481,206L480,140L433,150Z" fill="#632527" stroke="#632527" stroke-width="1.51"/><path d="M318,658L357,648L320,590Z" fill="#471d1f" stroke="#471d1f" stroke-width="1.51"/><path d="M528,322L545,254L489,270Z" fill="#4e1f22" stroke="#4e1f22" stroke-width="1.51"/><path d="M543,381L545,254L528,322Z" fill="#4a1d20" stroke="#4a1d20" stroke-width="1.51"/><path d="M-81,199L-26,262L-23,196Z" fill="#c33e40" stroke="#c33e40" stroke-width="1.51"/><path d="M-81,199L-87,249L-26,262Z" fill="#c43f40" stroke="#c43f40" stroke-width="1.51"/><path d="M41,83L-31,136L33,150Z" fill="#c23e40" stroke="#c23e40" stroke-width="1.51"/><path d="M149,-28L133,25L189,29Z" fill="#b33a3c" stroke="#b33a3c" stroke-width="1.51"/><path d="M189,29L133,25L151,88Z" fill="#ae393b" stroke="#ae393b" stroke-width="1.51"/><path d="M32,653L98,657L90,606Z" fill="#762a2c" stroke="#762a2c" stroke-width="1.51"/><path d="M200,701L263,698L197,657Z" fill="#552123" stroke="#552123" stroke-width="1.51"/><path d="M197,657L263,698L259,649Z" fill="#542123" stroke="#542123" stroke-width="1.51"/><path d="M539,425L546,483L543,381Z" fill="#3d1a1d" stroke="#3d1a1d" stroke-width="1.51"/><path d="M543,381L546,483L545,254Z" fill="#441c1f" stroke="#441c1f" stroke-width="1.51"/><path d="M473,542L546,483L472,485Z" fill="#37181b" stroke="#37181b" stroke-width="1.51"/><path d="M546,548L546,483L473,542Z" fill="#33171a" stroke="#33171a" stroke-width="1.51"/><path d="M545,254L544,207L481,206Z" fill="#542023" stroke="#542023" stroke-width="1.51"/><path d="M-31,136L-81,199L-23,196Z" fill="#c83f41" stroke="#c83f41" stroke-width="1.51"/><path d="M247,-17L204,-12L254,34Z" fill="#a43638" stroke="#a43638" stroke-width="1.51"/><path d="M428,92L377,35L359,91Z" fill="#7d2c2e" stroke="#7d2c2e" stroke-width="1.51"/><path d="M429,31L377,35L428,92Z" fill="#7a2b2d" stroke="#7a2b2d" stroke-width="1.51"/><path d="M417,599L475,591L428,550Z" fill="#39181c" stroke="#39181c" stroke-width="1.51"/><path d="M418,653L475,591L417,599Z" fill="#36181b" stroke="#36181b" stroke-width="1.51"/><path d="M-88,323L-90,484L-77,430Z" fill="#b23a3c" stroke="#b23a3c" stroke-width="1.51"/><path d="M-77,430L-90,484L-18,474Z" fill="#a73739" stroke="#a73739" stroke-width="1.51"/><path d="M133,25L94,27L151,88Z" fill="#b53b3c" stroke="#b53b3c" stroke-width="1.51"/><path d="M41,83L-32,81L-31,136Z" fill="#ca3f41" stroke="#ca3f41" stroke-width="1.51"/><path d="M544,207L526,158L481,206Z" fill="#582124" stroke="#582124" stroke-width="1.51"/><path d="M480,140L477,92L428,92Z" fill="#6a2729" stroke="#6a2729" stroke-width="1.51"/><path d="M357,648L418,653L417,599Z" fill="#3b191c" stroke="#3b191c" stroke-width="1.51"/><path d="M318,658L321,703L357,648Z" fill="#421c1e" stroke="#421c1e" stroke-width="1.51"/><path d="M200,701L197,657L142,655Z" fill="#5e2326" stroke="#5e2326" stroke-width="1.51"/><path d="M134,705L200,701L142,655Z" fill="#602427" stroke="#602427" stroke-width="1.51"/><path d="M540,91L477,92L480,140Z" fill="#632527" stroke="#632527" stroke-width="1.51"/><path d="M376,711L418,653L357,648Z" fill="#39181c" stroke="#39181c" stroke-width="1.51"/><path d="M247,-17L254,34L313,34Z" fill="#9b3436" stroke="#9b3436" stroke-width="1.51"/><path d="M133,25L88,-28L94,27Z" fill="#be3d3f" stroke="#be3d3f" stroke-width="1.51"/><path d="M-90,484L-79,537L-18,474Z" fill="#a33638" stroke="#a33638" stroke-width="1.51"/><path d="M-29,543L-31,601L35,601Z" fill="#8e3032" stroke="#8e3032" stroke-width="1.51"/><path d="M35,601L32,653L90,606Z" fill="#7d2c2e" stroke="#7d2c2e" stroke-width="1.51"/><path d="M-71,602L-31,601L-29,543Z" fill="#953234" stroke="#953234" stroke-width="1.51"/><path d="M98,657L134,705L142,655Z" fill="#682629" stroke="#682629" stroke-width="1.51"/><path d="M-18,647L32,653L35,601Z" fill="#822d30" stroke="#822d30" stroke-width="1.51"/><path d="M320,-23L247,-17L313,34Z" fill="#993335" stroke="#993335" stroke-width="1.51"/><path d="M263,698L321,703L318,658Z" fill="#461c1f" stroke="#461c1f" stroke-width="1.51"/><path d="M266,771L321,703L263,698Z" fill="#451c1f" stroke="#451c1f" stroke-width="1.51"/><path d="M96,704L134,705L98,657Z" fill="#6a2729" stroke="#6a2729" stroke-width="1.51"/><path d="M370,767L376,711L321,703Z" fill="#38191b" stroke="#38191b" stroke-width="1.51"/><path d="M34,-17L37,29L94,27Z" fill="#c83f41" stroke="#c83f41" stroke-width="1.51"/><path d="M94,27L37,29L41,83Z" fill="#c33e40" stroke="#c33e40" stroke-width="1.51"/><path d="M-31,136L-80,139L-81,199Z" fill="#cf4143" stroke="#cf4143" stroke-width="1.51"/><path d="M-75,85L-80,139L-31,136Z" fill="#d34244" stroke="#d34244" stroke-width="1.51"/><path d="M-81,199L-80,139L-87,249Z" fill="#cd4042" stroke="#cd4042" stroke-width="1.51"/><path d="M-16,26L-32,81L41,83Z" fill="#cd4043" stroke="#cd4043" stroke-width="1.51"/><path d="M477,92L429,31L428,92Z" fill="#71292b" stroke="#71292b" stroke-width="1.51"/><path d="M377,35L320,-23L313,34Z" fill="#8e3133" stroke="#8e3133" stroke-width="1.51"/><path d="M541,600L546,548L475,591Z" fill="#2d1418" stroke="#2d1418" stroke-width="1.51"/><path d="M475,591L546,548L473,542Z" fill="#311619" stroke="#311619" stroke-width="1.51"/><path d="M30,701L96,704L98,657Z" fill="#71282b" stroke="#71282b" stroke-width="1.51"/><path d="M367,-29L320,-23L377,35Z" fill="#8d3032" stroke="#8d3032" stroke-width="1.51"/><path d="M204,-12L149,-28L189,29Z" fill="#b0393b" stroke="#b0393b" stroke-width="1.51"/><path d="M189,-71L149,-28L204,-12Z" fill="#b43a3c" stroke="#b43a3c" stroke-width="1.51"/><path d="M189,-71L204,-12L245,-79Z" fill="#b0393b" stroke="#b0393b" stroke-width="1.51"/><path d="M32,653L30,701L98,657Z" fill="#772a2d" stroke="#772a2d" stroke-width="1.51"/><path d="M-31,601L-18,647L35,601Z" fill="#882f31" stroke="#882f31" stroke-width="1.51"/><path d="M-71,602L-18,647L-31,601Z" fill="#8f3133" stroke="#8f3133" stroke-width="1.51"/><path d="M321,703L376,711L357,648Z" fill="#3d191d" stroke="#3d191d" stroke-width="1.51"/><path d="M486,659L541,600L475,591Z" fill="#2b1418" stroke="#2b1418" stroke-width="1.51"/><path d="M266,771L263,698L208,774Z" fill="#491d20" stroke="#491d20" stroke-width="1.51"/><path d="M-79,537L-71,602L-29,543Z" fill="#9b3436" stroke="#9b3436" stroke-width="1.51"/><path d="M-84,651L-71,602L-79,537Z" fill="#9a3335" stroke="#9a3335" stroke-width="1.51"/><path d="M245,-79L204,-12L247,-17Z" fill="#aa3839" stroke="#aa3839" stroke-width="1.51"/><path d="M424,-29L367,-29L377,35Z" fill="#862e30" stroke="#862e30" stroke-width="1.51"/><path d="M486,659L475,591L418,653Z" fill="#301619" stroke="#301619" stroke-width="1.51"/><path d="M-73,42L-75,85L-32,81Z" fill="#d94345" stroke="#d94345" stroke-width="1.51"/><path d="M149,-28L88,-28L133,25Z" fill="#bd3c3e" stroke="#bd3c3e" stroke-width="1.51"/><path d="M145,-75L88,-28L149,-28Z" fill="#c03d3f" stroke="#c03d3f" stroke-width="1.51"/><path d="M-32,81L-75,85L-31,136Z" fill="#d24143" stroke="#d24143" stroke-width="1.51"/><path d="M-16,26L41,83L37,29Z" fill="#cb4042" stroke="#cb4042" stroke-width="1.51"/><path d="M429,31L424,-29L377,35Z" fill="#7f2d2e" stroke="#7f2d2e" stroke-width="1.51"/><path d="M477,92L484,30L429,31Z" fill="#71282b" stroke="#71282b" stroke-width="1.51"/><path d="M526,158L540,91L480,140Z" fill="#5f2326" stroke="#5f2326" stroke-width="1.51"/><path d="M544,207L540,91L526,158Z" fill="#5c2325" stroke="#5c2325" stroke-width="1.51"/><path d="M432,701L486,659L418,653Z" fill="#2e1519" stroke="#2e1519" stroke-width="1.51"/><path d="M34,-17L-16,26L37,29Z" fill="#d04143" stroke="#d04143" stroke-width="1.51"/><path d="M-18,713L30,701L-18,647Z" fill="#7f2c2f" stroke="#7f2c2f" stroke-width="1.51"/><path d="M-18,647L30,701L32,653Z" fill="#7e2c2f" stroke="#7e2c2f" stroke-width="1.51"/><path d="M528,35L484,30L477,92Z" fill="#6a2729" stroke="#6a2729" stroke-width="1.51"/><path d="M376,711L432,701L418,653Z" fill="#33171a" stroke="#33171a" stroke-width="1.51"/><path d="M88,-28L34,-17L94,27Z" fill="#c73e41" stroke="#c73e41" stroke-width="1.51"/><path d="M245,-79L247,-17L312,-75Z" fill="#a43638" stroke="#a43638" stroke-width="1.51"/><path d="M88,-28L82,-69L34,-17Z" fill="#cc4042" stroke="#cc4042" stroke-width="1.51"/><path d="M488,-23L424,-29L429,31Z" fill="#7b2b2e" stroke="#7b2b2e" stroke-width="1.51"/><path d="M312,-75L247,-17L320,-23Z" fill="#9d3437" stroke="#9d3437" stroke-width="1.51"/><path d="M376,711L414,771L432,701Z" fill="#2f1519" stroke="#2f1519" stroke-width="1.51"/><path d="M208,774L263,698L200,701Z" fill="#502022" stroke="#502022" stroke-width="1.51"/><path d="M208,774L200,701L133,767Z" fill="#552123" stroke="#552123" stroke-width="1.51"/><path d="M200,701L134,705L133,767Z" fill="#5d2326" stroke="#5d2326" stroke-width="1.51"/><path d="M312,-75L320,-23L367,-29Z" fill="#953234" stroke="#953234" stroke-width="1.51"/><path d="M133,767L134,705L96,704Z" fill="#632527" stroke="#632527" stroke-width="1.51"/><path d="M-75,85L-79,-20L-80,139Z" fill="#dd4447" stroke="#dd4447" stroke-width="1.51"/><path d="M-16,26L-73,42L-32,81Z" fill="#d74245" stroke="#d74245" stroke-width="1.51"/><path d="M-79,-20L-73,42L-16,26Z" fill="#df4447" stroke="#df4447" stroke-width="1.51"/><path d="M367,-84L312,-75L367,-29Z" fill="#953234" stroke="#953234" stroke-width="1.51"/><path d="M266,771L316,769L321,703Z" fill="#401a1d" stroke="#401a1d" stroke-width="1.51"/><path d="M370,767L316,769L375,811Z" fill="#33171a" stroke="#33171a" stroke-width="1.51"/><path d="M88,774L133,767L96,704Z" fill="#632527" stroke="#632527" stroke-width="1.51"/><path d="M245,-79L145,-75L189,-71Z" fill="#b63b3d" stroke="#b63b3d" stroke-width="1.51"/><path d="M189,-71L145,-75L149,-28Z" fill="#bb3c3e" stroke="#bb3c3e" stroke-width="1.51"/><path d="M540,91L528,35L477,92Z" fill="#652528" stroke="#652528" stroke-width="1.51"/><path d="M484,30L488,-23L429,31Z" fill="#742a2b" stroke="#742a2b" stroke-width="1.51"/><path d="M-71,602L-84,651L-18,647Z" fill="#913133" stroke="#913133" stroke-width="1.51"/><path d="M39,768L88,774L96,704Z" fill="#692629" stroke="#692629" stroke-width="1.51"/><path d="M-90,484L-84,651L-79,537Z" fill="#a03537" stroke="#a03537" stroke-width="1.51"/><path d="M432,701L483,703L486,659Z" fill="#291317" stroke="#291317" stroke-width="1.51"/><path d="M486,659L544,654L541,600Z" fill="#271317" stroke="#271317" stroke-width="1.51"/><path d="M478,766L483,703L432,701Z" fill="#261217" stroke="#261217" stroke-width="1.51"/><path d="M541,702L544,654L486,659Z" fill="#241116" stroke="#241116" stroke-width="1.51"/><path d="M541,600L544,654L546,548Z" fill="#2b1418" stroke="#2b1418" stroke-width="1.51"/><path d="M-82,700L-18,713L-18,647Z" fill="#872e31" stroke="#872e31" stroke-width="1.51"/><path d="M34,-17L-30,-29L-16,26Z" fill="#d74245" stroke="#d74245" stroke-width="1.51"/><path d="M145,-75L82,-69L88,-28Z" fill="#c63f41" stroke="#c63f41" stroke-width="1.51"/><path d="M316,769L370,767L321,703Z" fill="#39191c" stroke="#39191c" stroke-width="1.51"/><path d="M414,771L370,767L375,811Z" fill="#2d1519" stroke="#2d1519" stroke-width="1.51"/><path d="M39,768L96,704L30,701Z" fill="#70282b" stroke="#70282b" stroke-width="1.51"/><path d="M142,815L190,820L208,774Z" fill="#4f1f22" stroke="#4f1f22" stroke-width="1.51"/><path d="M528,35L488,-23L484,30Z" fill="#6d282a" stroke="#6d282a" stroke-width="1.51"/><path d="M424,-29L367,-84L367,-29Z" fill="#8b2f32" stroke="#8b2f32" stroke-width="1.51"/><path d="M312,-75L367,-84L245,-79Z" fill="#9f3536" stroke="#9f3536" stroke-width="1.51"/><path d="M-21,-86L82,-69L145,-75Z" fill="#d14143" stroke="#d14143" stroke-width="1.51"/><path d="M431,-85L367,-84L424,-29Z" fill="#8a2f31" stroke="#8a2f31" stroke-width="1.51"/><path d="M20,-74L-30,-29L34,-17Z" fill="#d94345" stroke="#d94345" stroke-width="1.51"/><path d="M-21,753L39,768L30,701Z" fill="#762a2c" stroke="#762a2c" stroke-width="1.51"/><path d="M-21,753L30,701L-18,713Z" fill="#7b2b2e" stroke="#7b2b2e" stroke-width="1.51"/><path d="M370,767L414,771L376,711Z" fill="#301619" stroke="#301619" stroke-width="1.51"/><path d="M483,703L541,702L486,659Z" fill="#231116" stroke="#231116" stroke-width="1.51"/><path d="M315,821L316,769L266,771Z" fill="#3b1a1c" stroke="#3b1a1c" stroke-width="1.51"/><path d="M82,-69L20,-74L34,-17Z" fill="#d34144" stroke="#d34144" stroke-width="1.51"/><path d="M-21,-86L20,-74L82,-69Z" fill="#da4345" stroke="#da4345" stroke-width="1.51"/><path d="M-21,-86L145,-75L245,-79Z" fill="#c63e40" stroke="#c63e40" stroke-width="1.51"/><path d="M-84,651L-82,700L-18,647Z" fill="#8d3032" stroke="#8d3032" stroke-width="1.51"/><path d="M531,770L541,702L483,703Z" fill="#1f0f14" stroke="#1f0f14" stroke-width="1.51"/><path d="M490,-66L431,-85L424,-29Z" fill="#802d2f" stroke="#802d2f" stroke-width="1.51"/><path d="M528,35L542,-9L488,-23Z" fill="#6e282a" stroke="#6e282a" stroke-width="1.51"/><path d="M540,91L542,-9L528,35Z" fill="#692629" stroke="#692629" stroke-width="1.51"/><path d="M544,207L542,-9L540,91Z" fill="#632427" stroke="#632427" stroke-width="1.51"/><path d="M545,254L542,-9L544,207Z" fill="#5c2325" stroke="#5c2325" stroke-width="1.51"/><path d="M208,774L245,828L266,771Z" fill="#461c1f" stroke="#461c1f" stroke-width="1.51"/><path d="M142,815L208,774L133,767Z" fill="#552123" stroke="#552123" stroke-width="1.51"/><path d="M142,815L133,767L88,774Z" fill="#5c2325" stroke="#5c2325" stroke-width="1.51"/><path d="M86,820L142,815L88,774Z" fill="#5d2326" stroke="#5d2326" stroke-width="1.51"/><path d="M490,-66L424,-29L488,-23Z" fill="#7a2b2d" stroke="#7a2b2d" stroke-width="1.51"/><path d="M39,768L86,820L88,774Z" fill="#652628" stroke="#652628" stroke-width="1.51"/><path d="M-82,700L-21,753L-18,713Z" fill="#822d30" stroke="#822d30" stroke-width="1.51"/><path d="M-69,-86L-79,-20L-30,-29Z" fill="#e84749" stroke="#e84749" stroke-width="1.51"/><path d="M-30,-29L-79,-20L-16,26Z" fill="#df4447" stroke="#df4447" stroke-width="1.51"/><path d="M-73,42L-79,-20L-75,85Z" fill="#e14547" stroke="#e14547" stroke-width="1.51"/><path d="M-80,139L-79,-20L-87,249Z" fill="#d74345" stroke="#d74345" stroke-width="1.51"/><path d="M250,866L245,828L198,871Z" fill="#401b1e" stroke="#401b1e" stroke-width="1.51"/><path d="M190,820L245,828L208,774Z" fill="#491d20" stroke="#491d20" stroke-width="1.51"/><path d="M245,828L315,821L266,771Z" fill="#3d1a1d" stroke="#3d1a1d" stroke-width="1.51"/><path d="M315,821L375,811L316,769Z" fill="#34171b" stroke="#34171b" stroke-width="1.51"/><path d="M414,771L478,766L432,701Z" fill="#271317" stroke="#271317" stroke-width="1.51"/><path d="M469,824L478,766L414,771Z" fill="#211115" stroke="#211115" stroke-width="1.51"/><path d="M533,-66L490,-66L488,-23Z" fill="#752a2c" stroke="#752a2c" stroke-width="1.51"/><path d="M28,825L86,820L39,768Z" fill="#672629" stroke="#672629" stroke-width="1.51"/><path d="M198,871L245,828L190,820Z" fill="#461c1f" stroke="#461c1f" stroke-width="1.51"/><path d="M20,-74L-21,-86L-30,-29Z" fill="#e04547" stroke="#e04547" stroke-width="1.51"/><path d="M367,-84L-21,-86L245,-79Z" fill="#b63b3d" stroke="#b63b3d" stroke-width="1.51"/><path d="M431,-85L-21,-86L367,-84Z" fill="#aa383a" stroke="#aa383a" stroke-width="1.51"/><path d="M375,811L417,819L414,771Z" fill="#281317" stroke="#281317" stroke-width="1.51"/><path d="M358,884L417,819L375,811Z" fill="#271317" stroke="#271317" stroke-width="1.51"/><path d="M358,884L375,811L315,821Z" fill="#2d1518" stroke="#2d1518" stroke-width="1.51"/><path d="M542,-9L533,-66L488,-23Z" fill="#72292b" stroke="#72292b" stroke-width="1.51"/><path d="M490,-66L533,-66L431,-85Z" fill="#7b2b2d" stroke="#7b2b2d" stroke-width="1.51"/><path d="M-28,818L28,825L39,768Z" fill="#6f282a" stroke="#6f282a" stroke-width="1.51"/><path d="M198,871L190,820L152,876Z" fill="#491d20" stroke="#491d20" stroke-width="1.51"/><path d="M-28,818L39,768L-21,753Z" fill="#74292c" stroke="#74292c" stroke-width="1.51"/><path d="M478,766L531,770L483,703Z" fill="#1e0f14" stroke="#1e0f14" stroke-width="1.51"/><path d="M469,824L531,770L478,766Z" fill="#1b0d13" stroke="#1b0d13" stroke-width="1.51"/><path d="M245,828L250,866L315,821Z" fill="#3b191c" stroke="#3b191c" stroke-width="1.51"/><path d="M190,820L142,815L152,876Z" fill="#4e1f21" stroke="#4e1f21" stroke-width="1.51"/><path d="M-90,484L-84,762L-84,651Z" fill="#973335" stroke="#973335" stroke-width="1.51"/><path d="M-84,651L-84,762L-82,700Z" fill="#8d3032" stroke="#8d3032" stroke-width="1.51"/><path d="M-82,700L-84,762L-21,753Z" fill="#852e30" stroke="#852e30" stroke-width="1.51"/><path d="M152,876L142,815L87,874Z" fill="#532023" stroke="#532023" stroke-width="1.51"/><path d="M-21,-86L-69,-86L-30,-29Z" fill="#e74649" stroke="#e74649" stroke-width="1.51"/><path d="M417,819L469,824L414,771Z" fill="#221116" stroke="#221116" stroke-width="1.51"/><path d="M250,866L318,871L315,821Z" fill="#35171b" stroke="#35171b" stroke-width="1.51"/><path d="M358,884L318,871L250,866Z" fill="#311619" stroke="#311619" stroke-width="1.51"/><path d="M431,873L469,824L417,819Z" fill="#1f0f14" stroke="#1f0f14" stroke-width="1.51"/><path d="M198,871L358,884L250,866Z" fill="#38181b" stroke="#38181b" stroke-width="1.51"/><path d="M87,874L142,815L86,820Z" fill="#592224" stroke="#592224" stroke-width="1.51"/><path d="M36,864L87,874L86,820Z" fill="#5e2426" stroke="#5e2426" stroke-width="1.51"/><path d="M-84,762L-28,818L-21,753Z" fill="#7d2b2e" stroke="#7d2b2e" stroke-width="1.51"/><path d="M36,864L86,820L28,825Z" fill="#642527" stroke="#642527" stroke-width="1.51"/><path d="M-30,866L36,864L28,825Z" fill="#692729" stroke="#692729" stroke-width="1.51"/><path d="M318,871L358,884L315,821Z" fill="#2f1519" stroke="#2f1519" stroke-width="1.51"/><path d="M152,876L358,884L198,871Z" fill="#3d191d" stroke="#3d191d" stroke-width="1.51"/><path d="M87,874L358,884L152,876Z" fill="#441c1e" stroke="#441c1e" stroke-width="1.51"/><path d="M-84,762L-76,817L-28,818Z" fill="#7e2c2e" stroke="#7e2c2e" stroke-width="1.51"/><path d="M-28,818L-30,866L28,825Z" fill="#6f282a" stroke="#6f282a" stroke-width="1.51"/><path d="M358,884L431,873L417,819Z" fill="#231115" stroke="#231115" stroke-width="1.51"/><path d="M469,824L542,819L531,770Z" fill="#170a11" stroke="#170a11" stroke-width="1.51"/><path d="M541,877L542,819L469,824Z" fill="#120710" stroke="#120710" stroke-width="1.51"/><path d="M531,770L542,819L541,702Z" fill="#1b0c13" stroke="#1b0c13" stroke-width="1.51"/><path d="M541,702L542,819L544,654Z" fill="#1f0f14" stroke="#1f0f14" stroke-width="1.51"/><path d="M544,654L542,819L546,548Z" fill="#241116" stroke="#241116" stroke-width="1.51"/><path d="M-76,817L-30,866L-28,818Z" fill="#762a2c" stroke="#762a2c" stroke-width="1.51"/><path d="M36,864L-30,866L87,874Z" fill="#642527" stroke="#642527" stroke-width="1.51"/><path d="M431,873L477,886L469,824Z" fill="#190c12" stroke="#190c12" stroke-width="1.51"/><path d="M358,884L477,886L431,873Z" fill="#1e0e13" stroke="#1e0e13" stroke-width="1.51"/><path d="M-76,817L-78,870L-30,866Z" fill="#772a2c" stroke="#772a2c" stroke-width="1.51"/><path d="M-30,866L-78,870L87,874Z" fill="#6b2729" stroke="#6b2729" stroke-width="1.51"/><path d="M87,874L-78,870L358,884Z" fill="#522022" stroke="#522022" stroke-width="1.51"/><path d="M-84,762L-78,870L-76,817Z" fill="#7f2d2f" stroke="#7f2d2f" stroke-width="1.51"/><path d="M477,886L541,877L469,824Z" fill="#120710" stroke="#120710" stroke-width="1.51"/></svg>